<?xml version="1.0" encoding="UTF-8" standalone="no"?>
<!-- Created with Inkscape (http://www.inkscape.org/) -->

<svg
   xmlns:dc="http://purl.org/dc/elements/1.1/"
   xmlns:cc="http://creativecommons.org/ns#"
   xmlns:rdf="http://www.w3.org/1999/02/22-rdf-syntax-ns#"
   xmlns:svg="http://www.w3.org/2000/svg"
   xmlns="http://www.w3.org/2000/svg"
   xmlns:sodipodi="http://sodipodi.sourceforge.net/DTD/sodipodi-0.dtd"
   xmlns:inkscape="http://www.inkscape.org/namespaces/inkscape"
   width="69"
   height="16"
   id="svg2"
   version="1.1"
   inkscape:version="0.91 r"
   sodipodi:docname="ArgumentTypeIcons.svg">
  <defs
     id="defs4" />
  <sodipodi:namedview
     id="base"
     pagecolor="#ffffff"
     bordercolor="#666666"
     borderopacity="1.0"
     inkscape:pageopacity="0.0"
     inkscape:pageshadow="2"
     inkscape:zoom="11.2"
     inkscape:cx="50.185501"
     inkscape:cy="16.063693"
     inkscape:document-units="px"
     inkscape:current-layer="layer1"
     showgrid="false"
     inkscape:window-width="1670"
     inkscape:window-height="1028"
     inkscape:window-x="59"
     inkscape:window-y="24"
     inkscape:window-maximized="0"
     units="px" />
  <metadata
     id="metadata7">
    <rdf:RDF>
      <cc:Work
         rdf:about="">
        <dc:format>image/svg+xml</dc:format>
        <dc:type
           rdf:resource="http://purl.org/dc/dcmitype/StillImage" />
        <dc:title></dc:title>
      </cc:Work>
    </rdf:RDF>
  </metadata>
  <g
     inkscape:label="Ebene 1"
     inkscape:groupmode="layer"
     id="layer1"
     transform="translate(0,-1036.3622)">
    <path
       style="fill:none;stroke:#999999;stroke-width:1.48900855;stroke-linecap:round;stroke-linejoin:round;stroke-miterlimit:4;stroke-dasharray:none;stroke-opacity:1"
       d="m 11.169223,1037.1643 c -2.8654385,0.017 -5.70736,0.6926 -7.7616496,2.0028 -3.83953891,2.4487 -3.48363699,6.1901 0.7819207,8.4116 -0.2874981,1.6574 -1.2012552,2.8651 -2.626391,3.7417 -0.00142,0 -0.00329,0 -0.00479,0 l -0.72915392,0.2686 c 2.90299562,0.2528 5.61790242,-1.318 6.69003362,-2.8548 3.1146012,0.6205 8.8776472,0.1314 11.6347522,-1.6281 3.866209,-2.4672 3.477691,-6.2424 -0.870669,-8.4356 -2.038295,-1.0281 -4.585715,-1.5243 -7.114046,-1.5086 z"
       id="path2985"
       inkscape:connector-curvature="0"
       sodipodi:nodetypes="sscccccsss"
       inkscape:export-filename="/home/jonny/Dokumente/Findeco/pro.png"
       inkscape:export-xdpi="21.772898"
       inkscape:export-ydpi="21.772898" />
    <g
       style="font-style:normal;font-weight:normal;font-size:64.30547333px;line-height:125%;font-family:Sans;letter-spacing:0px;word-spacing:0px;fill:#99999f;fill-opacity:0.94117647;stroke:none"
       id="text2996"
       inkscape:export-filename="/home/jonny/Dokumente/Findeco/pro.png"
       inkscape:export-xdpi="21.772898"
       inkscape:export-ydpi="21.772898"
       transform="matrix(0.23728218,0,0,0.23728218,-25.494574,1001.2093)">
      <path
         d="m 159.96686,156.20268 0,16.45316 16.39036,0 0,7.4102 -16.39036,0 0,16.45316 -7.473,0 0,-16.45316 -16.39036,0 0,-7.4102 16.39036,0 0,-16.45316 7.473,0"
         style="font-weight:bold;-inkscape-font-specification:'Sans Bold';fill:#99999f;fill-opacity:0.94117647"
         id="path3791"
         inkscape:connector-curvature="0" />
    </g>
    <path
       sodipodi:nodetypes="ccccccccccccc"
       inkscape:connector-curvature="0"
       id="path3768"
       d="m 27.551447,1040.5653 c -3.467412,-0.7457 -3.465321,3.1188 -1.801015,3.7402 -1.425529,1.1378 -0.948112,3.6878 1.354153,3.2732 -0.287497,1.6574 -1.201255,2.8651 -2.62639,3.7417 -0.0014,0 -0.0033,0 -0.0048,0 l -0.729154,0.2686 c 2.902995,0.2528 5.617902,-1.318 6.690034,-2.8548 1.624805,2.4927 5.473674,1.1533 5.866692,-0.5995 1.185728,2.633 5.535834,0.3892 4.962994,-1.3676 2.136292,1.2591 4.475691,-2.198 2.263784,-3.8545 1.588383,-1.3374 -1.689148,-5.6931 -4.363235,-2.5897 -0.227322,-2.7929 -5.075262,-3.879 -6.175791,-1.2196 -1.442498,-2.721 -5.913805,-1.3438 -5.437279,1.4596 z"
       style="fill:none;stroke:#99999f;stroke-width:1.48900855;stroke-linecap:round;stroke-linejoin:round;stroke-miterlimit:4;stroke-dasharray:none;stroke-opacity:0.94117647"
       inkscape:export-filename="/home/jonny/Dokumente/Findeco/neut.png"
       inkscape:export-xdpi="21.772898"
       inkscape:export-ydpi="21.772898" />
    <g
       style="font-style:normal;font-weight:normal;font-size:64.30547333px;line-height:125%;font-family:Sans;letter-spacing:0px;word-spacing:0px;fill:#99999f;fill-opacity:0.94117647;stroke:none"
       id="text3770"
       inkscape:export-filename="/home/jonny/Dokumente/Findeco/neut.png"
       inkscape:export-xdpi="21.772898"
       inkscape:export-ydpi="21.772898"
       transform="matrix(0.23728218,0,0,0.23728218,-34.218723,1001.2093)">
      <path
         d="m 265.22075,182.11524 6.62522,0 0,7.97538 -6.62522,0 0,-7.97538"
         style="-inkscape-font-specification:Sans;fill:#99999f;fill-opacity:0.94117647"
         id="path3784"
         inkscape:connector-curvature="0" />
      <path
         d="m 285.693,182.11524 6.62522,0 0,7.97538 -6.62522,0 0,-7.97538"
         style="-inkscape-font-specification:Sans;fill:#99999f;fill-opacity:0.94117647"
         id="path3786"
         inkscape:connector-curvature="0" />
      <path
         d="m 306.16525,182.11524 6.62522,0 0,7.97538 -6.62522,0 0,-7.97538"
         style="-inkscape-font-specification:Sans;fill:#99999f;fill-opacity:0.94117647"
         id="path3788"
         inkscape:connector-curvature="0" />
    </g>
    <path
       style="fill:none;stroke:#99999f;stroke-width:1.48900855;stroke-linecap:round;stroke-linejoin:round;stroke-miterlimit:4;stroke-dasharray:none;stroke-opacity:0.94117647"
       d="m 57.169223,1037.1643 c -2.865439,0.017 -5.70736,0.6926 -7.76165,2.0028 -3.839539,2.4487 -3.483636,6.1901 0.781921,8.4116 -0.287498,1.6574 -1.201256,2.8651 -2.626391,3.7417 -0.0014,0 -0.0033,0 -0.0048,0 l -0.729154,0.2686 c 2.902995,0.2528 5.617903,-1.318 6.690034,-2.8548 3.114601,0.6205 8.877647,0.1314 11.634752,-1.6281 3.866209,-2.4672 3.477691,-6.2424 -0.870669,-8.4356 -2.038294,-1.0281 -4.585716,-1.5243 -7.114045,-1.5086 z"
       id="path3774"
       inkscape:connector-curvature="0"
       sodipodi:nodetypes="sscccccsss"
       inkscape:export-filename="/home/jonny/Dokumente/Findeco/con.png"
       inkscape:export-xdpi="21.772898"
       inkscape:export-ydpi="21.772898" />
    <g
       style="font-style:normal;font-weight:normal;font-size:64.30547333px;line-height:125%;font-family:Sans;letter-spacing:0px;word-spacing:0px;fill:#99999f;fill-opacity:0.94117647;stroke:none"
       id="text3776"
       transform="matrix(0.37182766,0,0,0.37182766,-98.897138,977.10423)"
       inkscape:export-filename="/home/jonny/Dokumente/Findeco/con.png"
       inkscape:export-xdpi="21.772898"
       inkscape:export-ydpi="21.772898">
      <path
         d="m 411.79394,174.90096 16.92414,0 0,5.14947 -16.92414,0 0,-5.14947"
         style="-inkscape-font-specification:Sans;fill:#99999f;fill-opacity:0.94117647"
         id="path3781"
         inkscape:connector-curvature="0" />
    </g>
  </g>
</svg>
