<?xml version="1.0" encoding="UTF-8" standalone="no"?>
<svg
   xmlns:dc="http://purl.org/dc/elements/1.1/"
   xmlns:cc="http://creativecommons.org/ns#"
   xmlns:rdf="http://www.w3.org/1999/02/22-rdf-syntax-ns#"
   xmlns:svg="http://www.w3.org/2000/svg"
   xmlns="http://www.w3.org/2000/svg"
   version="1.1"
   id="svg2"
   viewBox="0 0 57.000001 19"
   height="19"
   width="57">
  <defs
     id="defs4" />
  <metadata
     id="metadata7">
    <rdf:RDF>
      <cc:Work
         rdf:about="">
        <dc:format>image/svg+xml</dc:format>
        <dc:type
           rdf:resource="http://purl.org/dc/dcmitype/StillImage" />
        <dc:title></dc:title>
      </cc:Work>
    </rdf:RDF>
  </metadata>
  <g
     transform="translate(0,-1033.3622)"
     id="layer1">
    <path
       id="path4147"
       d="M 17.788265,1042.8622 A 8.2882652,8.2882652 0 0 1 9.5,1051.1504 8.2882652,8.2882652 0 0 1 1.2117348,1042.8622 8.2882652,8.2882652 0 0 1 9.5,1034.5739 a 8.2882652,8.2882652 0 0 1 8.288265,8.2883 z"
       style="opacity:1;fill:none;fill-opacity:1;stroke:#ff9500;stroke-width:2.42346931;stroke-linecap:round;stroke-linejoin:round;stroke-miterlimit:4;stroke-dasharray:none;stroke-dashoffset:0;stroke-opacity:1" />
    <path
       id="circle4149"
       d="m 36.788265,1042.8622 a 8.2882652,8.2882652 0 0 1 -8.288265,8.2882 8.2882652,8.2882652 0 0 1 -8.288265,-8.2882 8.2882652,8.2882652 0 0 1 8.288265,-8.2883 8.2882652,8.2882652 0 0 1 8.288265,8.2883 z"
       style="opacity:1;fill:none;fill-opacity:1;stroke:#0c5da5;stroke-width:2.42346931;stroke-linecap:round;stroke-linejoin:round;stroke-miterlimit:4;stroke-dasharray:none;stroke-dashoffset:0;stroke-opacity:1" />
    <path
       id="circle4151"
       d="m 55.788265,1042.8622 a 8.2882652,8.2882652 0 0 1 -8.288265,8.2882 8.2882652,8.2882652 0 0 1 -8.288265,-8.2882 8.2882652,8.2882652 0 0 1 8.288265,-8.2883 8.2882652,8.2882652 0 0 1 8.288265,8.2883 z"
       style="opacity:1;fill:none;fill-opacity:1;stroke:#0c5da5;stroke-width:2.42346931;stroke-linecap:round;stroke-linejoin:round;stroke-miterlimit:4;stroke-dasharray:none;stroke-dashoffset:0;stroke-opacity:1" />
    <g
       id="text4153"
       style="font-style:normal;font-weight:normal;font-size:83.57215881px;line-height:125%;font-family:Sans;letter-spacing:0px;word-spacing:0px;fill:#ff9500;fill-opacity:1;stroke:none;stroke-width:1px;stroke-linecap:butt;stroke-linejoin:miter;stroke-opacity:1">
      <path
         id="path4166"
         style="font-style:normal;font-variant:normal;font-weight:bold;font-stretch:normal;font-size:15.66977978px;font-family:'Nimbus Sans L';-inkscape-font-specification:'Nimbus Sans L Bold';fill:#ff9500;fill-opacity:1"
         d="m 10.449959,1045.6122 c 0,-1.0342 0.109689,-1.2066 1.049875,-1.8647 1.45729,-1.0342 1.880374,-1.7237 1.880374,-3.0399 0,-2.1311 -1.598318,-3.6041 -3.9017752,-3.6041 -1.347601,0 -2.3974763,0.4701 -3.0712768,1.3946 -0.5171027,0.6895 -0.7208099,1.4417 -0.7364797,2.7266 l 2.1310901,0 0,-0.031 c -0.062679,-1.2692 0.6894703,-2.2407 1.7236758,-2.2407 0.9401868,0 1.6453268,0.7834 1.6453268,1.802 0,0.7051 -0.188037,1.0028 -1.112554,1.755 -1.2379129,1.0655 -1.5983179,1.7707 -1.5513085,3.1026 l 1.9430525,0 z m 0.250717,0.8619 -2.3504673,0 0,2.2877 2.3504673,0 0,-2.2877 z" />
    </g>
    <g
       id="text4157"
       style="font-style:normal;font-weight:normal;font-size:83.57215881px;line-height:125%;font-family:Sans;letter-spacing:0px;word-spacing:0px;fill:#ff9500;fill-opacity:1;stroke:none;stroke-width:1px;stroke-linecap:butt;stroke-linejoin:miter;stroke-opacity:1">
      <path
         id="path4169"
         style="font-style:normal;font-variant:normal;font-weight:bold;font-stretch:normal;font-size:15.66977978px;font-family:'Nimbus Sans L';-inkscape-font-specification:'Nimbus Sans L Bold';fill:#ff9500;fill-opacity:1"
         d="m 29.450283,1045.6122 c 0,-1.0342 0.109689,-1.2066 1.049876,-1.8647 1.457289,-1.0342 1.880373,-1.7237 1.880373,-3.0399 0,-2.1311 -1.598317,-3.6041 -3.901775,-3.6041 -1.347601,0 -2.397476,0.4701 -3.071277,1.3946 -0.517102,0.6895 -0.72081,1.4417 -0.736479,2.7266 l 2.13109,0 0,-0.031 c -0.06268,-1.2692 0.68947,-2.2407 1.723675,-2.2407 0.940187,0 1.645327,0.7834 1.645327,1.802 0,0.7051 -0.188037,1.0028 -1.112554,1.755 -1.237913,1.0655 -1.598318,1.7707 -1.551308,3.1026 l 1.943052,0 z m 0.250717,0.8619 -2.350467,0 0,2.2877 2.350467,0 0,-2.2877 z" />
    </g>
    <g
       id="text4161"
       style="font-style:normal;font-weight:normal;font-size:83.57215881px;line-height:125%;font-family:Sans;letter-spacing:0px;word-spacing:0px;fill:#0c5da5;fill-opacity:1;stroke:none;stroke-width:1px;stroke-linecap:butt;stroke-linejoin:miter;stroke-opacity:1">
      <path
         id="path4172"
         style="font-style:normal;font-variant:normal;font-weight:bold;font-stretch:normal;font-size:15.66977978px;font-family:'Nimbus Sans L';-inkscape-font-specification:'Nimbus Sans L Bold';fill:#0c5da5;fill-opacity:1"
         d="m 48.450282,1045.6122 c 0,-1.0342 0.109688,-1.2066 1.049875,-1.8647 1.457289,-1.0342 1.880373,-1.7237 1.880373,-3.0399 0,-2.1311 -1.598317,-3.6041 -3.901775,-3.6041 -1.347601,0 -2.397476,0.4701 -3.071277,1.3946 -0.517102,0.6895 -0.72081,1.4417 -0.736479,2.7266 l 2.13109,0 0,-0.031 c -0.06268,-1.2692 0.68947,-2.2407 1.723676,-2.2407 0.940186,0 1.645326,0.7834 1.645326,1.802 0,0.7051 -0.188037,1.0028 -1.112554,1.755 -1.237913,1.0655 -1.598318,1.7707 -1.551308,3.1026 l 1.943053,0 z m 0.250716,0.8619 -2.350467,0 0,2.2877 2.350467,0 0,-2.2877 z" />
    </g>
  </g>
</svg>
