<?xml version="1.0" encoding="UTF-8" standalone="no"?>
<svg
   xmlns:dc="http://purl.org/dc/elements/1.1/"
   xmlns:cc="http://creativecommons.org/ns#"
   xmlns:rdf="http://www.w3.org/1999/02/22-rdf-syntax-ns#"
   xmlns:svg="http://www.w3.org/2000/svg"
   xmlns="http://www.w3.org/2000/svg"
   id="svg2"
   height="12"
   width="16"
   version="1.1">
  <defs
     id="defs4" />
  <metadata
     id="metadata7">
    <rdf:RDF>
      <cc:Work
         rdf:about="">
        <dc:format>image/svg+xml</dc:format>
        <dc:type
           rdf:resource="http://purl.org/dc/dcmitype/StillImage" />
        <dc:title></dc:title>
      </cc:Work>
    </rdf:RDF>
  </metadata>
  <g
     transform="translate(0.32023709,0)"
     id="g4146">
    <path
       style="fill:#e07b01;fill-opacity:1;stroke:none"
       id="path2985"
       d="M 1.0418204,7.028097 C -0.3985998,5.5838508 -0.3270805,3.2200734 1.1428947,1.8059199 2.6128701,0.39176645 4.9509183,0.43701905 6.3650718,1.9069942 7.7317389,3.3276087 7.7558904,5.5845124 6.3880492,7.0039962 4.9793604,8.4658698 3.7672012,9.741725 3.7010175,12.000001 3.6349582,9.7295634 2.4972831,8.4874259 1.0418204,7.028097 Z" />
    <path
       style="fill:#ffffff;stroke:none"
       id="path2990"
       d="M 2.4880292,3.4388738 C 3.0429734,2.7689419 4.035932,2.675726 4.7058638,3.2306702 5.3757957,3.7856147 5.4690116,4.778573 4.9140671,5.4485049 4.3594697,6.118018 3.3673087,6.2116017 2.696769,5.6571523 2.0263006,5.101764 1.9330847,4.1088056 2.4880292,3.4388738 Z" />
  </g>
  <g
     transform="translate(-0.18245531,0)"
     id="g4142">
    <path
       style="fill:#2d7cc4;fill-opacity:1;stroke:none"
       id="path3765"
       d="M 9.5445126,7.028097 C 8.1040925,5.5838508 8.1756118,3.2200734 9.6455872,1.8059199 11.115563,0.39176645 13.453611,0.43701905 14.867764,1.9069942 c 1.366667,1.4206145 1.390819,3.6775182 0.02298,5.097002 C 13.482053,8.4658698 12.269894,9.741725 12.20371,12.000001 12.137651,9.7295634 10.999976,8.4874259 9.5445126,7.028097 Z" />
    <path
       style="fill:#ffffff;stroke:none"
       id="path3767"
       d="M 10.990722,3.4388738 C 11.545666,2.7689419 12.538624,2.675726 13.208556,3.2306702 13.878488,3.7856147 13.971704,4.778573 13.41676,5.4485049 12.862162,6.118018 11.870001,6.2116017 11.199461,5.6571523 10.528993,5.101764 10.435777,4.1088056 10.990722,3.4388738 Z" />
  </g>
</svg>
