<?xml version="1.0" encoding="UTF-8" standalone="no"?>
<!-- Created with Inkscape (http://www.inkscape.org/) -->

<svg
   xmlns:dc="http://purl.org/dc/elements/1.1/"
   xmlns:cc="http://creativecommons.org/ns#"
   xmlns:rdf="http://www.w3.org/1999/02/22-rdf-syntax-ns#"
   xmlns:svg="http://www.w3.org/2000/svg"
   xmlns="http://www.w3.org/2000/svg"
   xmlns:sodipodi="http://sodipodi.sourceforge.net/DTD/sodipodi-0.dtd"
   xmlns:inkscape="http://www.inkscape.org/namespaces/inkscape"
   version="1.1"
   width="400"
   height="65"
   id="svg2"
   inkscape:version="0.48.4 r9939"
   sodipodi:docname="Logo.svg">
  <sodipodi:namedview
     pagecolor="#ffffff"
     bordercolor="#666666"
     borderopacity="1"
     objecttolerance="10"
     gridtolerance="10"
     guidetolerance="10"
     inkscape:pageopacity="0"
     inkscape:pageshadow="2"
     inkscape:window-width="1644"
     inkscape:window-height="821"
     id="namedview24"
     showgrid="false"
     inkscape:zoom="2.5371827"
     inkscape:cx="157.30634"
     inkscape:cy="-10.578448"
     inkscape:window-x="59"
     inkscape:window-y="34"
     inkscape:window-maximized="0"
     inkscape:current-layer="g2998"
     fit-margin-top="0"
     fit-margin-left="0"
     fit-margin-right="0"
     fit-margin-bottom="0" />
  <defs
     id="defs4" />
  <metadata
     id="metadata7">
    <rdf:RDF>
      <cc:Work
         rdf:about="">
        <dc:format>image/svg+xml</dc:format>
        <dc:type
           rdf:resource="http://purl.org/dc/dcmitype/StillImage" />
        <dc:title />
      </cc:Work>
    </rdf:RDF>
  </metadata>
  <g
     id="layer1"
     transform="translate(-279.49366,-280.03659)">
    <g
       transform="matrix(0.16870219,0,0,0.16870219,249.76162,252.82896)"
       id="g2998">
      <g
         id="g3784">
        <path
           inkscape:connector-curvature="0"
           style="fill:#0c5da5;fill-opacity:1;stroke:none"
           id="path2997"
           d="m 305.35714,440.21932 -18.57143,-50 11.78572,4.64286 c 0,-1.10302 28.57143,-129.57194 47.5,-182.14286 9.95493,-27.64814 17.202,-46.7333 35.71429,-48.21428 8.92856,-0.71429 23.9859,2.8605 31.42857,6.78571 -4.70019,-1.78907 -10.70267,1.39512 -20,17.5 -9.67852,16.76518 -21.42858,63.57143 -29.28572,93.57143 -7.85714,30 -31.07143,124.64286 -31.07143,124.64286 l 12.5,3.57143 z" />
        <path
           inkscape:connector-curvature="0"
           style="fill:#ffffff;fill-opacity:1;stroke:none"
           id="path2999"
           d="m 251.07143,432.71932 44.64286,9.28572 L 275,393.07647 l -3.92857,8.92857 c -11.79382,-8.98422 -43.12218,-40.13578 -62.5,-65 -16.89205,-21.67465 -25.6871,-54.54869 -14.28572,-70.71429 -10.74668,11.46313 -18.08564,40.33114 -14.99999,58.21428 3.11798,18.07054 14.11842,34.50274 24.28571,49.28572 13.65324,19.85146 37.92769,40.98502 50.35714,53.21429 z" />
        <path
           inkscape:connector-curvature="0"
           style="fill:#00510a;fill-opacity:1;stroke:none"
           id="path3001"
           d="m 250.71429,439.86218 44.64391,10.72894 -16.78678,38.91391 -6.07142,-9.99999 c 0,0 -27.78606,6.76174 -36.42858,3.21429 -8.46004,-3.47256 -21.75266,-16.98185 -27.85713,-33.21429 7.10981,12.33898 27.88524,6.13357 47.5,0.35714 z" />
        <path
           inkscape:connector-curvature="0"
           style="fill:#00510a;fill-opacity:1;stroke:none"
           id="path3003"
           d="m 309.64286,449.86218 44.64286,-31.42857 -0.7143,18.92858 c 45.54984,1.88927 105.10021,-3.21738 133.57144,-15.35716 39.71179,-16.93261 81.46533,-39.14084 78.92857,-84.99999 4.77427,22.43889 1.16372,43.49837 -3.57143,56.07143 -11.04539,29.32842 -53.94097,53.73186 -89.64285,64.64286 C 423.16438,472.90613 352.5,468.79076 352.5,468.79076 l 0.35714,19.28571 z" />
        <path
           inkscape:connector-curvature="0"
           style="fill:#0c5da5;fill-opacity:1;stroke:none"
           id="path3005"
           d="m 303.06034,453.80541 -14.48891,36.05677 10.35714,-0.35714 c 7.96831,27.59831 16.79785,42.3182 22.5,48.57143 3.25899,3.57395 14.98408,6.72404 31.78572,6.07143 -6.77416,-0.603 -19.29358,-25.20628 -24.64286,-55 l 11.07143,0 z" />
        <path
           inkscape:connector-curvature="0"
           style="fill:#ff9500;fill-opacity:1;stroke:none"
           id="path3007"
           d="m 195.71429,286.6479 c 20.59798,-21.54346 46.19877,-23.65687 71.07142,-22.85715 16.23559,0.52202 46.42498,9.6147 56.07143,12.14286 l 6.07143,-22.14286 c -9.89897,-3.90837 -43.46383,-12.55183 -63.21429,-11.42856 -18.0762,1.02804 -38.58716,2.07095 -52.85714,13.21428 -9.3231,7.28034 -16.6694,16.18632 -17.14285,31.07143 z" />
        <path
           inkscape:connector-curvature="0"
           style="fill:#ffffff;fill-opacity:1;stroke:none"
           id="path3013"
           d="m 337.8403,512.89879 c 1.35588,2.17506 4.72464,0.0837 13.69108,-20.58711 l 6.32576,5.93494 -0.71428,-24.45587 25.4852,-0.41275 c -3.38306,14.96789 -8.94111,31.95269 -16.01161,47.58086 -3.13356,6.92623 -12.44221,19.71846 -15.99599,16.49385 -3.55378,-3.2246 -10.18866,-16.03656 -12.78016,-24.55392 z" />
        <path
           inkscape:connector-curvature="0"
           style="fill:#ffffff;fill-opacity:1;stroke:none"
           id="path3015"
           d="m 368.95822,433.39121 25.25381,-0.25253 c 10.19605,-32.45263 18.94342,-71.62133 25.60634,-118.53526 -5.7447,-2.01942 -16.87651,-3.81863 -24.05778,-7.48427 -6.37707,46.56737 -16.40145,91.10559 -26.80237,126.27206 z" />
        <path
           inkscape:connector-curvature="0"
           style="fill:#ffffff;fill-opacity:1;stroke:none"
           id="path3017"
           d="m 398.77994,272.18001 c 10.78754,3.45934 17.57505,6.01321 23.74969,6.96809 0,0 4.70287,-42.10792 0.21921,-75.06152 -1.29997,-9.55446 -2.73497,-27.78754 -12.37436,-28.03174 -6.31143,-0.15989 -14.64722,15.65737 -14.64722,15.65737 3.69482,8.27895 6.68762,17.54882 3.05268,80.4678 z" />
        <path
           inkscape:connector-curvature="0"
           style="fill:#ffffff;fill-opacity:1;stroke:none"
           id="path3021"
           d="m 559.26888,354.42838 c 4.55569,-24.28548 -5.57765,-36.32091 -12.38035,-43.49622 -4.43468,-4.67758 -12.45713,-11.10931 -16.91673,-13.3986 -8.68695,5.11514 -15.98495,9.3948 -28.18418,12.54873 22.98586,6.81971 48.37988,17.61886 57.48126,44.34609 z" />
        <path
           inkscape:connector-curvature="0"
           style="fill:#ffffff;fill-opacity:1;stroke:none"
           id="path3023"
           d="m 388.8754,321.99967 2.56982,-16.10989 c -6.4209,-1.89983 -11.88345,-3.36436 -16.61196,-5.40029 l -13.98959,6.35789 -7.57614,29.7995 c 9.42219,-4.18239 23.50454,-11.22783 35.60787,-14.64721 z" />
        <path
           inkscape:connector-curvature="0"
           style="fill:#ffffff;fill-opacity:1;stroke:none"
           id="path3025"
           d="m 308.34906,335.65895 -8.58629,36.61803 c -6.73902,5.72886 -13.41821,11.3979 -21.46574,18.43528 l -2.77792,-5.55584 -6.06092,11.36422 c -5.36485,-5.38748 -10.92543,-10.77496 -15.65736,-16.16244 17.11024,-15.70413 34.76663,-30.99864 54.54823,-44.69925 z" />
        <path
           inkscape:connector-curvature="0"
           style="fill:#ffffff;fill-opacity:0.94117647;stroke:none"
           id="path3027"
           d="m 247.3611,425.18372 c -6.32534,-5.51375 -11.65377,-11.0275 -17.80393,-16.54125 -5.57335,5.62128 -18.82157,22.2907 -18.30902,33.71384 0.3848,8.57578 7.66088,11.92043 21.71828,10.2278 -1.50157,-0.73928 6.98354,-17.59688 14.39467,-27.40039 z" />
        <path
           inkscape:connector-curvature="0"
           style="fill:#ff9500;fill-opacity:1;stroke:none"
           id="path3008"
           transform="translate(178.06756,163.9049)"
           d="m 186.66284,130.43158 c 2.29151,-8.61907 4.92495,-16.78911 7.90945,-26.10116 17.21273,4.74834 45.33083,17.79144 68.81214,17.13712 27.74914,-0.77323 40.71663,0.29831 72.28915,-17.51931 17.66349,-9.968203 32.64278,-23.082488 32.64278,-23.082488 l -10.01862,-13.973349 49.82948,7.118498 -13.1824,46.665709 -9.22768,-14.23699 c -20.33177,15.53256 -49.6122,34.97443 -71.18498,38.49261 -29.99008,4.89091 -47.75631,5.45525 -79.62172,0 -14.74599,-2.52447 -38.55388,-11.80794 -48.2476,-14.50064 z" />
      </g>
      <g
         id="g3800"
         transform="matrix(0.47716125,0,0,0.47716125,1281.6301,85.9617)">
        <path
           d="m 305.35714,440.21932 -18.57143,-50 11.78572,4.64286 c 0,-1.10302 28.57143,-129.57194 47.5,-182.14286 9.95493,-27.64814 17.202,-46.7333 35.71429,-48.21428 8.92856,-0.71429 23.9859,2.8605 31.42857,6.78571 -4.70019,-1.78907 -10.70267,1.39512 -20,17.5 -9.67852,16.76518 -21.42858,63.57143 -29.28572,93.57143 -7.85714,30 -31.07143,124.64286 -31.07143,124.64286 l 12.5,3.57143 z"
           id="path3802"
           style="fill:#0c5da5;fill-opacity:1;stroke:none"
           inkscape:connector-curvature="0" />
        <path
           d="m 251.07143,432.71932 44.64286,9.28572 L 275,393.07647 l -3.92857,8.92857 c -11.79382,-8.98422 -43.12218,-40.13578 -62.5,-65 -16.89205,-21.67465 -25.6871,-54.54869 -14.28572,-70.71429 -10.74668,11.46313 -18.08564,40.33114 -14.99999,58.21428 3.11798,18.07054 14.11842,34.50274 24.28571,49.28572 13.65324,19.85146 37.92769,40.98502 50.35714,53.21429 z"
           id="path3804"
           style="fill:#ffffff;fill-opacity:1;stroke:none"
           inkscape:connector-curvature="0" />
        <path
           d="m 250.71429,439.86218 44.64391,10.72894 -16.78678,38.91391 -6.07142,-9.99999 c 0,0 -27.78606,6.76174 -36.42858,3.21429 -8.46004,-3.47256 -21.75266,-16.98185 -27.85713,-33.21429 7.10981,12.33898 27.88524,6.13357 47.5,0.35714 z"
           id="path3806"
           style="fill:#00510a;fill-opacity:1;stroke:none"
           inkscape:connector-curvature="0" />
        <path
           d="m 309.64286,449.86218 44.64286,-31.42857 -0.7143,18.92858 c 45.54984,1.88927 105.10021,-3.21738 133.57144,-15.35716 39.71179,-16.93261 81.46533,-39.14084 78.92857,-84.99999 4.77427,22.43889 1.16372,43.49837 -3.57143,56.07143 -11.04539,29.32842 -53.94097,53.73186 -89.64285,64.64286 C 423.16438,472.90613 352.5,468.79076 352.5,468.79076 l 0.35714,19.28571 z"
           id="path3808"
           style="fill:#00510a;fill-opacity:1;stroke:none"
           inkscape:connector-curvature="0" />
        <path
           d="m 303.06034,453.80541 -14.48891,36.05677 10.35714,-0.35714 c 7.96831,27.59831 16.79785,42.3182 22.5,48.57143 3.25899,3.57395 14.98408,6.72404 31.78572,6.07143 -6.77416,-0.603 -19.29358,-25.20628 -24.64286,-55 l 11.07143,0 z"
           id="path3810"
           style="fill:#0c5da5;fill-opacity:1;stroke:none"
           inkscape:connector-curvature="0" />
        <path
           d="m 195.71429,286.6479 c 20.59798,-21.54346 46.19877,-23.65687 71.07142,-22.85715 16.23559,0.52202 46.42498,9.6147 56.07143,12.14286 l 6.07143,-22.14286 c -9.89897,-3.90837 -43.46383,-12.55183 -63.21429,-11.42856 -18.0762,1.02804 -38.58716,2.07095 -52.85714,13.21428 -9.3231,7.28034 -16.6694,16.18632 -17.14285,31.07143 z"
           id="path3812"
           style="fill:#ff9500;fill-opacity:1;stroke:none"
           inkscape:connector-curvature="0" />
        <path
           d="m 337.8403,512.89879 c 1.35588,2.17506 4.72464,0.0837 13.69108,-20.58711 l 6.32576,5.93494 -0.71428,-24.45587 25.4852,-0.41275 c -3.38306,14.96789 -8.94111,31.95269 -16.01161,47.58086 -3.13356,6.92623 -12.44221,19.71846 -15.99599,16.49385 -3.55378,-3.2246 -10.18866,-16.03656 -12.78016,-24.55392 z"
           id="path3814"
           style="fill:#ffffff;fill-opacity:1;stroke:none"
           inkscape:connector-curvature="0" />
        <path
           d="m 368.95822,433.39121 25.25381,-0.25253 c 10.19605,-32.45263 18.94342,-71.62133 25.60634,-118.53526 -5.7447,-2.01942 -16.87651,-3.81863 -24.05778,-7.48427 -6.37707,46.56737 -16.40145,91.10559 -26.80237,126.27206 z"
           id="path3816"
           style="fill:#ffffff;fill-opacity:1;stroke:none"
           inkscape:connector-curvature="0" />
        <path
           d="m 398.77994,272.18001 c 10.78754,3.45934 17.57505,6.01321 23.74969,6.96809 0,0 4.70287,-42.10792 0.21921,-75.06152 -1.29997,-9.55446 -2.73497,-27.78754 -12.37436,-28.03174 -6.31143,-0.15989 -14.64722,15.65737 -14.64722,15.65737 3.69482,8.27895 6.68762,17.54882 3.05268,80.4678 z"
           id="path3818"
           style="fill:#ffffff;fill-opacity:1;stroke:none"
           inkscape:connector-curvature="0" />
        <path
           d="m 559.26888,354.42838 c 4.55569,-24.28548 -5.57765,-36.32091 -12.38035,-43.49622 -4.43468,-4.67758 -12.45713,-11.10931 -16.91673,-13.3986 -8.68695,5.11514 -15.98495,9.3948 -28.18418,12.54873 22.98586,6.81971 48.37988,17.61886 57.48126,44.34609 z"
           id="path3820"
           style="fill:#ffffff;fill-opacity:1;stroke:none"
           inkscape:connector-curvature="0" />
        <path
           d="m 388.8754,321.99967 2.56982,-16.10989 c -6.4209,-1.89983 -11.88345,-3.36436 -16.61196,-5.40029 l -13.98959,6.35789 -7.57614,29.7995 c 9.42219,-4.18239 23.50454,-11.22783 35.60787,-14.64721 z"
           id="path3822"
           style="fill:#ffffff;fill-opacity:1;stroke:none"
           inkscape:connector-curvature="0" />
        <path
           d="m 308.34906,335.65895 -8.58629,36.61803 c -6.73902,5.72886 -13.41821,11.3979 -21.46574,18.43528 l -2.77792,-5.55584 -6.06092,11.36422 c -5.36485,-5.38748 -10.92543,-10.77496 -15.65736,-16.16244 17.11024,-15.70413 34.76663,-30.99864 54.54823,-44.69925 z"
           id="path3824"
           style="fill:#ffffff;fill-opacity:1;stroke:none"
           inkscape:connector-curvature="0" />
        <path
           d="m 247.3611,425.18372 c -6.32534,-5.51375 -11.65377,-11.0275 -17.80393,-16.54125 -5.57335,5.62128 -18.82157,22.2907 -18.30902,33.71384 0.3848,8.57578 7.66088,11.92043 21.71828,10.2278 -1.50157,-0.73928 6.98354,-17.59688 14.39467,-27.40039 z"
           id="path3826"
           style="fill:#ffffff;fill-opacity:0.94117647;stroke:none"
           inkscape:connector-curvature="0" />
        <path
           d="m 186.66284,130.43158 c 2.29151,-8.61907 4.92495,-16.78911 7.90945,-26.10116 17.21273,4.74834 45.33083,17.79144 68.81214,17.13712 27.74914,-0.77323 40.71663,0.29831 72.28915,-17.51931 17.66349,-9.968203 32.64278,-23.082488 32.64278,-23.082488 l -10.01862,-13.973349 49.82948,7.118498 -13.1824,46.665709 -9.22768,-14.23699 c -20.33177,15.53256 -49.6122,34.97443 -71.18498,38.49261 -29.99008,4.89091 -47.75631,5.45525 -79.62172,0 -14.74599,-2.52447 -38.55388,-11.80794 -48.2476,-14.50064 z"
           transform="translate(178.06756,163.9049)"
           id="path3828"
           style="fill:#ff9500;fill-opacity:1;stroke:none"
           inkscape:connector-curvature="0" />
      </g>
    </g>
    <g
       style="font-size:33.91044998px;font-style:normal;font-weight:normal;line-height:125%;letter-spacing:0px;word-spacing:0px;fill:#808080;fill-opacity:1;stroke:none;font-family:Sans"
       id="text3045">
      <path
         d="m 358.7029,310.69125 0,-23.94263 13.59398,0 0,2.48368 -10.26585,0 0,7.98087 9.66977,0 0,2.48368 -9.66977,0 0,10.9944 -3.32813,0"
         style="font-variant:normal;font-stretch:normal;fill:#808080;font-family:Monda;-inkscape-font-specification:Monda"
         id="path3770"
         inkscape:connector-curvature="0" />
      <path
         d="m 377.7113,310.69125 0,-17.5513 3.11287,0 0,17.5513 -3.11287,0 m 0,-20.71385 0,-3.22878 3.11287,0 0,3.22878 -3.11287,0"
         style="font-variant:normal;font-stretch:normal;fill:#808080;font-family:Monda;-inkscape-font-specification:Monda"
         id="path3772"
         inkscape:connector-curvature="0" />
      <path
         d="m 398.44171,297.75958 c -2e-5,-1.71096 -1.30808,-2.56645 -3.92421,-2.56646 -1.29152,10e-6 -2.30706,0.27598 -3.04664,0.82789 -0.73959,0.55194 -1.10938,1.27497 -1.10938,2.16908 l 0,12.50116 -3.11287,0 0,-17.5513 3.11287,0 0,1.70545 c 1.17008,-1.35772 2.90314,-2.03659 5.19917,-2.03661 2.98039,2e-5 4.86798,1.04868 5.66278,3.14599 0.22075,0.5961 0.33114,1.25841 0.33115,1.98694 l 0,12.74953 -3.11287,0 0,-12.93167"
         style="font-variant:normal;font-stretch:normal;fill:#808080;font-family:Monda;-inkscape-font-specification:Monda"
         id="path3774"
         inkscape:connector-curvature="0" />
      <path
         d="m 414.28756,292.80879 c 1.41292,2e-5 2.70995,0.22079 3.89109,0.66231 l 0,-7.71595 3.11287,0 0,24.9361 -2.1194,0 -0.51329,-1.15904 c -0.54091,0.41946 -1.25289,0.77821 -2.13596,1.07625 -0.8831,0.29805 -1.75514,0.44707 -2.61614,0.44707 -2.39538,0 -4.15602,-0.52985 -5.28195,-1.58956 -1.1149,-1.07073 -1.67235,-2.51126 -1.67234,-4.32159 l 0,-6.62314 c -1e-5,-1.82134 0.6016,-3.22876 1.8048,-4.22224 1.2032,-0.99346 3.04664,-1.49019 5.53032,-1.49021 m -4.22225,12.5674 c -1e-5,1.04867 0.36979,1.84896 1.10938,2.40088 0.75061,0.55193 1.62817,0.8279 2.63269,0.8279 1.78824,0 3.24532,-0.34772 4.37127,-1.04315 l 0,-11.64016 c -1.00452,-0.48568 -2.22428,-0.72853 -3.65928,-0.72854 -2.96938,10e-6 -4.45407,0.99348 -4.45406,2.98041 l 0,7.20266"
         style="font-variant:normal;font-stretch:normal;fill:#808080;font-family:Monda;-inkscape-font-specification:Monda"
         id="path3776"
         inkscape:connector-curvature="0" />
      <path
         d="m 434.12384,311.05553 c -2.57199,0 -4.43198,-0.53537 -5.57999,-1.60611 -1.14801,-1.07074 -1.72202,-2.721 -1.72201,-4.9508 l 0,-6.10984 c -1e-5,-1.73304 0.59056,-3.0963 1.77169,-4.08978 1.18112,-0.99346 2.96384,-1.49019 5.34818,-1.49021 2.39535,2e-5 4.17256,0.46364 5.33162,1.39086 1.17007,0.91621 1.75511,2.2298 1.75513,3.94076 l 0,4.17258 -11.09375,0 0,2.46712 c -10e-6,1.45709 0.29252,2.47264 0.87757,3.04664 0.58503,0.56297 1.63921,0.84445 3.16254,0.84445 1.52331,0 2.38432,-0.0331 2.58302,-0.0994 0.19869,-0.0662 0.4029,-0.1435 0.61264,-0.23181 0.20972,-0.0883 0.35323,-0.19317 0.43051,-0.3146 0.0883,-0.12142 0.19868,-0.30356 0.33116,-0.54641 0.14348,-0.25388 0.24835,-0.73958 0.31459,-1.45709 l 2.74861,0 c -0.11041,1.04867 -0.29806,1.89312 -0.56297,2.53335 -0.2539,0.64024 -0.66233,1.15353 -1.22528,1.53988 -0.55194,0.37531 -1.21978,0.6292 -2.0035,0.76166 -0.77271,0.13246 -1.7993,0.1987 -3.07976,0.1987 m -4.18913,-10.84539 8.08022,0 0,-2.40088 c -10e-6,-0.99346 -0.3422,-1.67785 -1.02658,-2.05318 -0.67337,-0.37529 -1.66683,-0.56295 -2.98041,-0.56296 -1.3136,1e-5 -2.32363,0.2263 -3.03009,0.67887 -0.69543,0.45259 -1.04315,1.1977 -1.04314,2.23531 l 0,2.10284"
         style="font-variant:normal;font-stretch:normal;fill:#808080;font-family:Monda;-inkscape-font-specification:Monda"
         id="path3778"
         inkscape:connector-curvature="0" />
      <path
         d="m 453.16536,311.05553 c -3.58754,0 -5.83388,-1.24736 -6.73904,-3.74208 -0.26493,-0.70646 -0.39739,-1.47916 -0.39739,-2.31809 l 0,-6.68937 c 0,-1.66681 0.63471,-2.99695 1.90415,-3.99044 1.26943,-1.00449 2.98592,-1.50674 5.14949,-1.50676 2.75962,2e-5 4.65825,0.5961 5.69589,1.78825 0.81684,0.92725 1.22527,2.29603 1.22528,4.10634 l -2.96385,0.28148 c -1e-5,-1.56746 -0.2815,-2.58852 -0.84445,-3.0632 -0.55194,-0.48568 -1.53989,-0.72853 -2.96385,-0.72854 -1.42398,10e-6 -2.46161,0.24838 -3.11288,0.7451 -0.65128,0.49675 -0.97691,1.3136 -0.97691,2.45056 l 0,6.8715 c 0,1.21425 0.34219,2.08629 1.02659,2.61614 0.68438,0.52985 1.73856,0.79478 3.16255,0.79478 1.435,0 2.38983,-0.18766 2.8645,-0.56297 0.48568,-0.37531 0.78373,-1.22528 0.89412,-2.54991 l 2.88107,0 c -0.17664,2.0311 -0.76168,3.45507 -1.75513,4.27193 -0.99349,0.81685 -2.67687,1.22528 -5.05014,1.22528"
         style="font-variant:normal;font-stretch:normal;fill:#808080;font-family:Monda;-inkscape-font-specification:Monda"
         id="path3780"
         inkscape:connector-curvature="0" />
      <path
         d="m 467.55412,305.74046 c -1e-5,1.95383 1.38533,2.93074 4.15601,2.93074 2.77067,0 4.15601,-0.97691 4.15602,-2.93074 l 0,-7.60005 c -1e-5,-1.96485 -1.38535,-2.94728 -4.15602,-2.94729 -2.77068,10e-6 -4.15602,0.98244 -4.15601,2.94729 l 0,7.60005 m 11.42491,-0.26492 c -2e-5,1.72201 -0.59058,3.08527 -1.77169,4.08978 -1.1701,0.99347 -3.00802,1.49021 -5.51376,1.49021 -2.50576,0 -4.34368,-0.49674 -5.51376,-1.49021 -1.15905,-0.99347 -1.73858,-2.35673 -1.73858,-4.08978 l 0,-7.0702 c 0,-1.73304 0.57953,-3.0963 1.73858,-4.08979 1.17008,-1.00449 3.008,-1.50674 5.51376,-1.50676 2.50574,2e-5 4.34366,0.50227 5.51376,1.50676 1.18111,1.00453 1.77167,2.36779 1.77169,4.08979 l 0,7.0702"
         style="font-variant:normal;font-stretch:normal;fill:#808080;font-family:Monda;-inkscape-font-specification:Monda"
         id="path3782"
         inkscape:connector-curvature="0" />
    </g>
    <g
       id="g3830"
       style="font-size:33.91044998px;font-style:normal;font-weight:normal;line-height:125%;letter-spacing:0px;word-spacing:0px;fill:#808080;fill-opacity:1;stroke:none;font-family:Sans"
       transform="translate(162.77898,0)">
      <path
         id="path3832"
         style="font-variant:normal;font-stretch:normal;fill:#808080;font-family:Monda;-inkscape-font-specification:Monda"
         d="m 358.7029,310.69125 0,-23.94263 13.59398,0 0,2.48368 -10.26585,0 0,7.98087 9.66977,0 0,2.48368 -9.66977,0 0,10.9944 -3.32813,0"
         inkscape:connector-curvature="0" />
      <path
         id="path3834"
         style="font-variant:normal;font-stretch:normal;fill:#808080;font-family:Monda;-inkscape-font-specification:Monda"
         d="m 377.7113,310.69125 0,-17.5513 3.11287,0 0,17.5513 -3.11287,0 m 0,-20.71385 0,-3.22878 3.11287,0 0,3.22878 -3.11287,0"
         inkscape:connector-curvature="0" />
      <path
         id="path3836"
         style="font-variant:normal;font-stretch:normal;fill:#808080;font-family:Monda;-inkscape-font-specification:Monda"
         d="m 398.44171,297.75958 c -2e-5,-1.71096 -1.30808,-2.56645 -3.92421,-2.56646 -1.29152,10e-6 -2.30706,0.27598 -3.04664,0.82789 -0.73959,0.55194 -1.10938,1.27497 -1.10938,2.16908 l 0,12.50116 -3.11287,0 0,-17.5513 3.11287,0 0,1.70545 c 1.17008,-1.35772 2.90314,-2.03659 5.19917,-2.03661 2.98039,2e-5 4.86798,1.04868 5.66278,3.14599 0.22075,0.5961 0.33114,1.25841 0.33115,1.98694 l 0,12.74953 -3.11287,0 0,-12.93167"
         inkscape:connector-curvature="0" />
      <path
         id="path3838"
         style="font-variant:normal;font-stretch:normal;fill:#808080;font-family:Monda;-inkscape-font-specification:Monda"
         d="m 414.28756,292.80879 c 1.41292,2e-5 2.70995,0.22079 3.89109,0.66231 l 0,-7.71595 3.11287,0 0,24.9361 -2.1194,0 -0.51329,-1.15904 c -0.54091,0.41946 -1.25289,0.77821 -2.13596,1.07625 -0.8831,0.29805 -1.75514,0.44707 -2.61614,0.44707 -2.39538,0 -4.15602,-0.52985 -5.28195,-1.58956 -1.1149,-1.07073 -1.67235,-2.51126 -1.67234,-4.32159 l 0,-6.62314 c -1e-5,-1.82134 0.6016,-3.22876 1.8048,-4.22224 1.2032,-0.99346 3.04664,-1.49019 5.53032,-1.49021 m -4.22225,12.5674 c -1e-5,1.04867 0.36979,1.84896 1.10938,2.40088 0.75061,0.55193 1.62817,0.8279 2.63269,0.8279 1.78824,0 3.24532,-0.34772 4.37127,-1.04315 l 0,-11.64016 c -1.00452,-0.48568 -2.22428,-0.72853 -3.65928,-0.72854 -2.96938,10e-6 -4.45407,0.99348 -4.45406,2.98041 l 0,7.20266"
         inkscape:connector-curvature="0" />
      <path
         id="path3840"
         style="font-variant:normal;font-stretch:normal;fill:#808080;font-family:Monda;-inkscape-font-specification:Monda"
         d="m 434.12384,311.05553 c -2.57199,0 -4.43198,-0.53537 -5.57999,-1.60611 -1.14801,-1.07074 -1.72202,-2.721 -1.72201,-4.9508 l 0,-6.10984 c -1e-5,-1.73304 0.59056,-3.0963 1.77169,-4.08978 1.18112,-0.99346 2.96384,-1.49019 5.34818,-1.49021 2.39535,2e-5 4.17256,0.46364 5.33162,1.39086 1.17007,0.91621 1.75511,2.2298 1.75513,3.94076 l 0,4.17258 -11.09375,0 0,2.46712 c -10e-6,1.45709 0.29252,2.47264 0.87757,3.04664 0.58503,0.56297 1.63921,0.84445 3.16254,0.84445 1.52331,0 2.38432,-0.0331 2.58302,-0.0994 0.19869,-0.0662 0.4029,-0.1435 0.61264,-0.23181 0.20972,-0.0883 0.35323,-0.19317 0.43051,-0.3146 0.0883,-0.12142 0.19868,-0.30356 0.33116,-0.54641 0.14348,-0.25388 0.24835,-0.73958 0.31459,-1.45709 l 2.74861,0 c -0.11041,1.04867 -0.29806,1.89312 -0.56297,2.53335 -0.2539,0.64024 -0.66233,1.15353 -1.22528,1.53988 -0.55194,0.37531 -1.21978,0.6292 -2.0035,0.76166 -0.77271,0.13246 -1.7993,0.1987 -3.07976,0.1987 m -4.18913,-10.84539 8.08022,0 0,-2.40088 c -10e-6,-0.99346 -0.3422,-1.67785 -1.02658,-2.05318 -0.67337,-0.37529 -1.66683,-0.56295 -2.98041,-0.56296 -1.3136,1e-5 -2.32363,0.2263 -3.03009,0.67887 -0.69543,0.45259 -1.04315,1.1977 -1.04314,2.23531 l 0,2.10284"
         inkscape:connector-curvature="0" />
      <path
         id="path3842"
         style="font-variant:normal;font-stretch:normal;fill:#808080;font-family:Monda;-inkscape-font-specification:Monda"
         d="m 453.16536,311.05553 c -3.58754,0 -5.83388,-1.24736 -6.73904,-3.74208 -0.26493,-0.70646 -0.39739,-1.47916 -0.39739,-2.31809 l 0,-6.68937 c 0,-1.66681 0.63471,-2.99695 1.90415,-3.99044 1.26943,-1.00449 2.98592,-1.50674 5.14949,-1.50676 2.75962,2e-5 4.65825,0.5961 5.69589,1.78825 0.81684,0.92725 1.22527,2.29603 1.22528,4.10634 l -2.96385,0.28148 c -1e-5,-1.56746 -0.2815,-2.58852 -0.84445,-3.0632 -0.55194,-0.48568 -1.53989,-0.72853 -2.96385,-0.72854 -1.42398,10e-6 -2.46161,0.24838 -3.11288,0.7451 -0.65128,0.49675 -0.97691,1.3136 -0.97691,2.45056 l 0,6.8715 c 0,1.21425 0.34219,2.08629 1.02659,2.61614 0.68438,0.52985 1.73856,0.79478 3.16255,0.79478 1.435,0 2.38983,-0.18766 2.8645,-0.56297 0.48568,-0.37531 0.78373,-1.22528 0.89412,-2.54991 l 2.88107,0 c -0.17664,2.0311 -0.76168,3.45507 -1.75513,4.27193 -0.99349,0.81685 -2.67687,1.22528 -5.05014,1.22528"
         inkscape:connector-curvature="0" />
      <path
         id="path3844"
         style="font-variant:normal;font-stretch:normal;fill:#808080;font-family:Monda;-inkscape-font-specification:Monda"
         d="m 467.55412,305.74046 c -1e-5,1.95383 1.38533,2.93074 4.15601,2.93074 2.77067,0 4.15601,-0.97691 4.15602,-2.93074 l 0,-7.60005 c -1e-5,-1.96485 -1.38535,-2.94728 -4.15602,-2.94729 -2.77068,10e-6 -4.15602,0.98244 -4.15601,2.94729 l 0,7.60005 m 11.42491,-0.26492 c -2e-5,1.72201 -0.59058,3.08527 -1.77169,4.08978 -1.1701,0.99347 -3.00802,1.49021 -5.51376,1.49021 -2.50576,0 -4.34368,-0.49674 -5.51376,-1.49021 -1.15905,-0.99347 -1.73858,-2.35673 -1.73858,-4.08978 l 0,-7.0702 c 0,-1.73304 0.57953,-3.0963 1.73858,-4.08979 1.17008,-1.00449 3.008,-1.50674 5.51376,-1.50676 2.50574,2e-5 4.34366,0.50227 5.51376,1.50676 1.18111,1.00453 1.77167,2.36779 1.77169,4.08979 l 0,7.0702"
         inkscape:connector-curvature="0" />
    </g>
  </g>
</svg>
