<?xml version="1.0" encoding="UTF-8" standalone="no"?>
<!-- Created with Inkscape (http://www.inkscape.org/) -->

<svg
   xmlns:dc="http://purl.org/dc/elements/1.1/"
   xmlns:cc="http://creativecommons.org/ns#"
   xmlns:rdf="http://www.w3.org/1999/02/22-rdf-syntax-ns#"
   xmlns:svg="http://www.w3.org/2000/svg"
   xmlns="http://www.w3.org/2000/svg"
   xmlns:sodipodi="http://sodipodi.sourceforge.net/DTD/sodipodi-0.dtd"
   xmlns:inkscape="http://www.inkscape.org/namespaces/inkscape"
   width="40"
   height="20"
   id="svg2"
   version="1.1"
   inkscape:version="0.48.4 r9939"
   sodipodi:docname="Trash-Icon.svg">
  <defs
     id="defs4" />
  <sodipodi:namedview
     id="base"
     pagecolor="#ffffff"
     bordercolor="#666666"
     borderopacity="1.0"
     inkscape:pageopacity="0.0"
     inkscape:pageshadow="2"
     inkscape:zoom="22.627417"
     inkscape:cx="12.546938"
     inkscape:cy="10.786589"
     inkscape:document-units="px"
     inkscape:current-layer="layer1"
     showgrid="false"
     inkscape:window-width="1871"
     inkscape:window-height="1056"
     inkscape:window-x="49"
     inkscape:window-y="24"
     inkscape:window-maximized="1" />
  <metadata
     id="metadata7">
    <rdf:RDF>
      <cc:Work
         rdf:about="">
        <dc:format>image/svg+xml</dc:format>
        <dc:type
           rdf:resource="http://purl.org/dc/dcmitype/StillImage" />
        <dc:title />
      </cc:Work>
    </rdf:RDF>
  </metadata>
  <g
     inkscape:label="Ebene 1"
     inkscape:groupmode="layer"
     id="layer1"
     transform="translate(0,-1032.3622)">
    <path
       style="fill:#ff9500;fill-opacity:1;stroke:none"
       d="M 10,0.03125 C 4.4860178,0.03125 0,4.4860178 0,10 c 0,5.513982 4.4860178,9.96875 10,9.96875 5.513982,0 9.96875,-4.454768 9.96875,-9.96875 0,-5.5139822 -4.454768,-9.96875 -9.96875,-9.96875 z m -0.0625,2.9375 c 1.998861,0 3.789642,0.24645 5.125,0.65625 0.667679,0.2049 1.219953,0.42495 1.625,0.71875 0.395021,0.2866252 0.673854,0.6685936 0.6875,1.09375 3.46e-4,0.010791 0,0.020376 0,0.03125 0,0.010874 3.46e-4,0.020461 0,0.03125 a 0.31018313,0.31018313 0 0 1 0,0.125 C 17.3664,5.67828 17.36042,5.7302169 17.34375,5.78125 L 15.375,15.6875 c -0.07809,0.3913 -0.306358,0.72635 -0.625,0.96875 -0.318642,0.2425 -0.713224,0.40615 -1.1875,0.53125 -0.948552,0.2507 -2.195065,0.34375 -3.625,0.34375 C 8.5053093,17.53135 7.2578511,17.4455 6.3125,17.1875 5.8398244,17.0585 5.4423824,16.8625 5.125,16.625 4.8076176,16.3875 4.583895,16.09595 4.5,15.71875 L 4.5,15.6875 2.4375,5.5625 A 0.31018313,0.31018313 0 0 1 2.46875,5.375 0.31018313,0.31018313 0 0 1 2.5,5.3125 C 2.5600273,4.9430395 2.8018338,4.6009125 3.15625,4.34375 3.5612971,4.04995 4.1135711,3.8299 4.78125,3.625 6.1166077,3.2152 7.9386395,2.96875 9.9375,2.96875 z m 0,0.59375 c -1.9474222,0 -3.7179899,0.27245 -4.96875,0.65625 -0.6253799,0.1919 -1.1193952,0.3942 -1.4375,0.625 -0.3181048,0.2308 -0.4375,0.4588 -0.4375,0.625 0,0.1662 0.1193952,0.36295 0.4375,0.59375 0.3181048,0.2308 0.8121201,0.46435 1.4375,0.65625 1.2507601,0.3838 3.0213278,0.625 4.96875,0.625 1.947422,0 3.717989,-0.2412 4.96875,-0.625 0.625379,-0.1919 1.119395,-0.42545 1.4375,-0.65625 0.303348,-0.2200928 0.427123,-0.4005956 0.4375,-0.5625 a 0.31018313,0.31018313 0 0 1 0,-0.03125 c 0,-0.1662 -0.119395,-0.3942 -0.4375,-0.625 -0.318105,-0.2308 -0.812121,-0.4331 -1.4375,-0.625 C 13.655489,3.83495 11.884922,3.5625 9.9375,3.5625 z M 3.875,6.96875 C 3.892321,6.984222 3.888378,7.015821 3.90625,7.03125 4.1745336,7.2629127 4.4956779,7.5156857 4.84375,7.75 4.85091,7.75482 4.867812,7.74518 4.875,7.75 5.2931339,7.7609244 5.7694895,7.7221311 6.25,7.65625 5.7254753,7.5603298 5.2154861,7.4457601 4.78125,7.3125 4.4474105,7.21005 4.1465583,7.0920625 3.875,6.96875 z m 12.03125,0.0625 C 15.65631,7.1389101 15.359771,7.221272 15.0625,7.3125 14.620101,7.448265 14.129917,7.5592982 13.59375,7.65625 14.076771,7.721761 14.546792,7.7607967 14.96875,7.75 14.97575,7.74518 14.993,7.75482 15,7.75 15.34,7.5156857 15.637967,7.2629127 15.90625,7.03125 z m -12.5,0.0625 0,0.125 C 3.4939526,7.3303242 3.6114122,7.4254607 3.75,7.5 3.8221071,7.5387828 3.9136892,7.5633214 4,7.59375 3.8879749,7.5059653 3.7587173,7.4322149 3.65625,7.34375 3.561028,7.261523 3.4899023,7.1724998 3.40625,7.09375 z m 13.0625,0 c -0.08856,0.084065 -0.179817,0.1624102 -0.28125,0.25 -0.102467,0.088465 -0.231725,0.1622153 -0.34375,0.25 0.08631,-0.030403 0.177893,-0.054967 0.25,-0.09375 0.147073,-0.079103 0.253885,-0.1907195 0.34375,-0.3125 l 0.03125,-0.09375 z m -8.6875,0.75 c 0.8049591,0.3877772 1.4862026,0.5809929 2.15625,0.71875 0.636723,-0.1334301 1.274121,-0.3635504 2.03125,-0.71875 -0.648891,0.058418 -1.322003,0.125 -2.03125,0.125 -0.7553335,0 -1.4706047,-0.05902 -2.15625,-0.125 z M 3.5625,7.875 3.59375,8.03125 c 0.1454204,0.2298447 0.3445645,0.480933 0.65625,0.75 0.1434002,0.1238215 0.3319546,0.2479571 0.5,0.375 C 5.0281288,9.183827 5.3369812,9.200686 5.6875,9.1875 5.9244575,9.17872 6.1816955,9.149684 6.4375,9.125 6.1752872,8.9897148 5.9103213,8.8645472 5.65625,8.71875 5.3431018,8.5390106 5.0352256,8.3448008 4.75,8.15625 4.3005387,8.1362649 3.9041452,8.0587016 3.5625,7.875 z m 12.78125,0.03125 c -0.01166,0.01 -0.01799,0.02425 -0.03125,0.03125 -0.334319,0.1801 -0.746424,0.25965 -1.1875,0.28125 -0.285226,0.1885 -0.593102,0.3827 -0.90625,0.5625 -0.265623,0.1524 -0.539519,0.26565 -0.8125,0.40625 0.253912,0.025 0.513043,0.0545 0.75,0.0625 0.361949,0.013 0.675231,-2.5e-4 0.96875,-0.03125 0.168045,-0.1271 0.3566,-0.2512 0.5,-0.375 0.32842,-0.2836 0.543626,-0.54255 0.6875,-0.78125 L 16.34375,7.90625 z M 7.0625,7.9375 C 6.549062,8.0327747 6.03595,8.1218463 5.53125,8.15625 5.6498118,8.2277793 5.7539446,8.3055279 5.875,8.375 6.288146,8.612099 6.7283165,8.8582549 7.15625,9.0625 7.7572039,8.9823793 8.347529,8.8585034 8.9375,8.75 8.3708866,8.5687126 7.7715509,8.3098503 7.0625,7.9375 z m 5.6875,0 C 12.045568,8.2997289 11.402951,8.5712232 10.84375,8.75 11.435169,8.8564663 12.025458,8.9804603 12.625,9.0625 13.076593,8.848757 13.529651,8.6269932 13.96875,8.375 14.089806,8.3055279 14.19533,8.2277793 14.3125,8.15625 13.79922,8.1227114 13.273425,8.0310847 12.75,7.9375 z M 9.90625,9 C 9.8736124,9.006277 9.8453201,9.0253157 9.8125,9.03125 9.201796,9.1416419 8.5168457,9.271931 7.84375,9.375 8.6447404,9.7190231 9.382574,9.947901 9.9375,10.0625 10.470919,9.9493333 11.184864,9.6951755 11.9375,9.375 11.286992,9.2741386 10.621651,9.137972 10.03125,9.03125 9.9897943,9.0237543 9.9475055,9.008046 9.90625,9 z M 16,9.3125 c -0.07626,0.036908 -0.135807,0.097604 -0.21875,0.125 -0.172798,0.058613 -0.363297,0.099274 -0.5625,0.125 -0.394051,0.2862102 -0.81902,0.578507 -1.28125,0.84375 -0.141707,0.08133 -0.293402,0.14023 -0.4375,0.21875 0.137456,0.01076 0.275029,0.02643 0.40625,0.03125 0.571946,0.02121 1.076859,-0.04214 1.4375,-0.15625 0.233867,-0.211999 0.428392,-0.407512 0.5625,-0.59375 L 16,9.3125 z m -12.15625,0.03125 0.125,0.5625 c 0.1271926,0.184925 0.2775419,0.390048 0.5,0.59375 0.00601,0.0055 0.025177,-0.0055 0.03125,0 0.3606152,0.11375 0.8658142,0.177745 1.4375,0.15625 C 6.04864,10.65215 6.1655609,10.63341 6.28125,10.625 6.1449863,10.55136 6.0082872,10.482744 5.875,10.40625 5.3983889,10.132755 4.9657967,9.8266917 4.5625,9.53125 4.3802177,9.5054338 4.1872118,9.4890138 4.03125,9.4375 3.9621306,9.41467 3.9071553,9.3731771 3.84375,9.34375 z m 3.25,0.125 c -0.4757958,0.059752 -0.9401226,0.1089677 -1.375,0.125 -0.1318839,0.00486 -0.2479515,1.637e-4 -0.375,0 0.2431487,0.1612846 0.4865296,0.31755 0.75,0.46875 0.2999067,0.17211 0.6262683,0.345342 0.9375,0.5 C 7.6638859,10.48154 8.3297484,10.368198 8.96875,10.25 8.3912551,10.060866 7.7515166,9.778518 7.09375,9.46875 z m 5.59375,0 c -0.654424,0.306736 -1.301306,0.596987 -1.875,0.78125 0.65825,0.121491 1.343417,0.228484 2,0.3125 0.316009,-0.156412 0.63193,-0.32464 0.9375,-0.5 0.263471,-0.1512 0.506851,-0.3074654 0.75,-0.46875 -0.124927,-4.73e-5 -0.243116,0.00476 -0.375,0 -0.454283,-0.016819 -0.939588,-0.061093 -1.4375,-0.125 z m -2.78125,1 C 9.886591,10.47255 9.863015,10.49652 9.84375,10.5 9.1724258,10.621312 8.4225706,10.762352 7.6875,10.875 c 0.8449393,0.378532 1.6336201,0.655874 2.21875,0.78125 0.567509,-0.118045 1.364744,-0.387489 2.1875,-0.75 C 11.379353,10.795163 10.652137,10.617845 10,10.5 9.972085,10.495 9.934988,10.47446 9.90625,10.46875 z m -5.75,0.34375 0.1875,1.03125 c 0.098889,0.08989 0.2317693,0.161117 0.40625,0.21875 0.3405862,0.1123 0.8213911,0.17625 1.375,0.15625 0.049179,-0.0018 0.1060154,0.0027 0.15625,0 C 6.2281121,12.18889 6.1776561,12.155219 6.125,12.125 5.4536445,11.739762 4.83367,11.325765 4.34375,10.90625 c -0.00955,-0.0032 -0.021775,0.0033 -0.03125,0 C 4.300192,10.89563 4.293404,10.88561 4.28125,10.875 4.234529,10.85769 4.20082,10.83296 4.15625,10.8125 z m 11.5625,0 c -0.05308,0.02542 -0.09997,0.04164 -0.15625,0.0625 -0.02247,0.0083 -0.03958,0.02368 -0.0625,0.03125 -0.48992,0.419513 -1.109895,0.833512 -1.78125,1.21875 -0.05266,0.03022 -0.103112,0.06389 -0.15625,0.09375 0.04899,0.0026 0.108182,-0.0018 0.15625,0 0.553609,0.0205 1.034414,-0.04375 1.375,-0.15625 0.170293,-0.05625 0.284363,-0.133038 0.375,-0.21875 0.01133,-0.01071 0.021,-0.01993 0.03125,-0.03125 0.0052,-0.0084 -0.0053,-0.02285 0,-0.03125 l 0.21875,-0.96875 z m -2.90625,0.15625 c -0.688523,0.344016 -1.35997,0.672466 -1.96875,0.875 0.68133,0.124645 1.367662,0.241791 2.03125,0.3125 0.220798,-0.114737 0.442978,-0.252594 0.65625,-0.375 0.399104,-0.229033 0.758524,-0.477764 1.09375,-0.71875 -0.225116,0.01342 -0.467733,0.0094 -0.71875,0 -0.345622,-0.01281 -0.720854,-0.04821 -1.09375,-0.09375 z M 6.90625,11 c -0.3278764,0.03756 -0.6631642,0.05125 -0.96875,0.0625 -0.2619306,0.0097 -0.5163522,0.01517 -0.75,0 0.3437092,0.249107 0.7126187,0.482098 1.125,0.71875 C 6.5335148,11.9081 6.7710453,12.037695 7,12.15625 7.6516847,12.08051 8.3375524,11.967314 9,11.84375 8.3808808,11.639727 7.6713246,11.343215 6.96875,11 6.948076,11.0024 6.926867,10.9976 6.90625,11 z m 3.03125,1.0625 c -0.029186,0.0058 -0.065415,0.02613 -0.09375,0.03125 -0.6956903,0.1257 -1.4628399,0.26532 -2.21875,0.375 0.8822763,0.415818 1.714995,0.718539 2.3125,0.84375 0.596207,-0.130158 1.414144,-0.435082 2.28125,-0.84375 C 11.46284,12.359063 10.69569,12.21945 10,12.09375 9.9803834,12.090205 9.9575486,12.066391 9.9375,12.0625 z M 5,12.53125 c 0.4223195,0.350242 0.946708,0.695764 1.53125,1.03125 0.1315754,0.07551 0.2707847,0.146064 0.40625,0.21875 0.6767133,-0.06129 1.3921329,-0.190358 2.09375,-0.3125 C 8.3888065,13.24593 7.662886,12.936315 6.9375,12.5625 6.6721791,12.590647 6.4062867,12.615726 6.15625,12.625 5.727631,12.640898 5.3506105,12.597448 5,12.53125 z m 9.84375,0 c -0.350611,0.0663 -0.727631,0.110018 -1.15625,0.09375 -0.250037,-0.0093 -0.515929,-0.03436 -0.78125,-0.0625 -0.715847,0.368899 -1.426957,0.685493 -2.0625,0.90625 0.71629,0.124267 1.445306,0.219982 2.125,0.28125 0.113036,-0.06131 0.233558,-0.124257 0.34375,-0.1875 0.584542,-0.335486 1.108931,-0.681008 1.53125,-1.03125 z m 0.5,0.09375 c -0.0544,0.05167 -0.09667,0.104818 -0.15625,0.15625 -0.408373,0.352613 -0.917516,0.703383 -1.46875,1.03125 0.427668,0.0013 0.822887,-0.03552 1.09375,-0.125 0.179646,-0.05934 0.28773,-0.150718 0.375,-0.25 L 15.34375,12.625 z M 4.5,12.65625 4.65625,13.4375 c 0.08727,0.09928 0.1953536,0.190656 0.375,0.25 0.2707713,0.08902 0.6662589,0.125986 1.09375,0.125 C 5.5660584,13.483701 5.0346831,13.134995 4.625,12.78125 4.577336,12.7401 4.544354,12.69755 4.5,12.65625 z m 5.40625,1.0625 C 9.886572,13.72265 9.86301,13.74652 9.84375,13.75 9.1542993,13.874619 8.3776365,14.030161 7.625,14.125 8.5039108,14.547737 9.3459627,14.87348 9.9375,15 10.551791,14.864114 11.416005,14.532008 12.3125,14.09375 11.532054,13.998753 10.716716,13.879547 10,13.75 9.971194,13.7448 9.935992,13.7248 9.90625,13.71875 z M 5.09375,14.125 c 0.023814,0.02333 0.037242,0.03899 0.0625,0.0625 0.3805615,0.3542 0.8904531,0.73755 1.5,1.09375 C 6.745,15.33312 6.8448985,15.386497 6.9375,15.4375 7.5814383,15.38556 8.2799231,15.2744 8.96875,15.15625 8.2935442,14.923463 7.5293733,14.58897 6.78125,14.1875 6.6329571,14.19868 6.4858286,14.21344 6.34375,14.21875 5.8735866,14.23616 5.4584322,14.21085 5.09375,14.125 z m 9.65625,0 c -0.364682,0.08695 -0.779837,0.110905 -1.25,0.09375 -0.142079,-0.0053 -0.289207,-0.02009 -0.4375,-0.03125 -0.747992,0.401399 -1.513515,0.734468 -2.1875,0.96875 0.688827,0.118185 1.387312,0.229397 2.03125,0.28125 0.08417,-0.04673 0.168808,-0.108797 0.25,-0.15625 0.609547,-0.3562 1.150689,-0.73955 1.53125,-1.09375 0.02526,-0.02351 0.03869,-0.03917 0.0625,-0.0625 z M 4.875,14.5 5,15.03125 c 0.051579,0.08111 0.087211,0.163792 0.15625,0.25 0.059588,0.03363 0.1079716,0.06753 0.1875,0.09375 0.2229635,0.0705 0.5331017,0.09195 0.875,0.09375 C 5.7000869,15.152366 5.2276311,14.828195 4.875,14.5 z m 10.09375,0 c -0.352631,0.328195 -0.825087,0.652366 -1.34375,0.96875 0.341898,-8.81e-4 0.652036,-0.02025 0.875,-0.09375 0.07953,-0.02627 0.127912,-0.06011 0.1875,-0.09375 0.06904,-0.08621 0.104671,-0.168893 0.15625,-0.25 L 14.96875,14.5 z M 9.875,15.4375 c -0.6948239,0.125498 -1.4871027,0.2775 -2.25,0.375 0.6903505,0.330722 1.4517447,0.638403 2.21875,0.875 0.00955,-0.0028 0.021702,0.0028 0.03125,0 0.805231,-0.238103 1.590932,-0.526364 2.3125,-0.875 -0.753644,-0.0975 -1.523926,-0.249502 -2.21875,-0.375 -0.017718,-0.0032 -0.044418,0.0035 -0.0625,0 -0.00884,0.0017 -0.0225,-0.0016 -0.03125,0 z M 5.75,15.84375 c 0.3542634,0.294445 0.8044114,0.59504 1.375,0.875 0.010954,0.0019 0.02022,-0.0019 0.03125,0 0.5597035,0.09444 1.2753827,0.131231 2,0.15625 -0.8019892,-0.285279 -1.5593719,-0.627345 -2.25,-1 C 6.7926481,15.8834 6.6716191,15.90223 6.5625,15.90625 6.2652203,15.91727 6.0026081,15.87996 5.75,15.84375 z m 8.34375,0 c -0.261409,0.03618 -0.54647,0.07346 -0.84375,0.0625 -0.109119,-0.004 -0.230775,-0.02289 -0.34375,-0.03125 -0.688853,0.370104 -1.456644,0.716197 -2.25,1 0.713863,-0.01854 1.411481,-0.04318 1.96875,-0.125 0.616387,-0.292447 1.095786,-0.596262 1.46875,-0.90625 z"
       transform="translate(0,1032.3622)"
       id="path2985"
       inkscape:connector-curvature="0" />
    <path
       id="path2983"
       d="m 30,1032.3935 c -5.513982,0 -10,4.4547 -10,9.9687 0,5.514 4.486018,9.9688 10,9.9688 5.513982,0 9.96875,-4.4548 9.96875,-9.9688 0,-5.514 -4.454768,-9.9687 -9.96875,-9.9687 z m -0.0625,2.9375 c 1.998861,0 3.789642,0.2464 5.125,0.6562 0.667679,0.2049 1.219953,0.425 1.625,0.7188 0.395021,0.2866 0.673854,0.6685 0.6875,1.0937 3.46e-4,0.011 0,0.02 0,0.031 0,0.011 3.46e-4,0.02 0,0.031 a 0.31018313,0.31018313 0 0 1 0,0.125 c -0.0086,0.053 -0.01458,0.1052 -0.03125,0.1563 l -1.96875,9.9062 c -0.07809,0.3913 -0.306358,0.7264 -0.625,0.9688 -0.318642,0.2425 -0.713224,0.4061 -1.1875,0.5312 -0.948552,0.2507 -2.195065,0.3438 -3.625,0.3438 -1.432191,10e-5 -2.679649,-0.086 -3.625,-0.3438 -0.472676,-0.129 -0.870118,-0.325 -1.1875,-0.5625 -0.317382,-0.2375 -0.541105,-0.529 -0.625,-0.9062 l 0,-0.031 -2.0625,-10.125 a 0.31018313,0.31018313 0 0 1 0.03125,-0.1875 0.31018313,0.31018313 0 0 1 0.03125,-0.062 c 0.06003,-0.3695 0.301834,-0.7116 0.65625,-0.9687 0.405047,-0.2938 0.957321,-0.5139 1.625,-0.7188 1.335358,-0.4098 3.157389,-0.6562 5.15625,-0.6562 z m 0,0.5937 c -1.947422,0 -3.71799,0.2725 -4.96875,0.6563 -0.62538,0.1919 -1.119395,0.3942 -1.4375,0.625 -0.318105,0.2308 -0.4375,0.4588 -0.4375,0.625 0,0.1662 0.119395,0.3629 0.4375,0.5937 0.318105,0.2308 0.81212,0.4644 1.4375,0.6563 1.25076,0.3838 3.021328,0.625 4.96875,0.625 1.947422,0 3.717989,-0.2412 4.96875,-0.625 0.625379,-0.1919 1.119395,-0.4255 1.4375,-0.6563 0.303348,-0.2201 0.427123,-0.4006 0.4375,-0.5625 a 0.31018313,0.31018313 0 0 1 0,-0.031 c 0,-0.1662 -0.119395,-0.3942 -0.4375,-0.625 -0.318105,-0.2308 -0.812121,-0.4331 -1.4375,-0.625 -1.250761,-0.3838 -3.021328,-0.6563 -4.96875,-0.6563 z m -6.0625,3.4063 c 0.01732,0.015 0.01338,0.047 0.03125,0.062 0.268284,0.2316 0.589428,0.4844 0.9375,0.7187 0.0072,0 0.02406,0 0.03125,0 0.418134,0.011 0.894489,-0.028 1.375,-0.094 -0.524525,-0.096 -1.034514,-0.2105 -1.46875,-0.3438 -0.33384,-0.1024 -0.634692,-0.2204 -0.90625,-0.3437 z m 12.03125,0.062 c -0.24994,0.1076 -0.546479,0.19 -0.84375,0.2812 -0.442399,0.1358 -0.932583,0.2468 -1.46875,0.3438 0.483021,0.066 0.953042,0.1045 1.375,0.094 0.007,0 0.02425,0 0.03125,0 0.34,-0.2343 0.637967,-0.4871 0.90625,-0.7187 z m -12.5,0.062 0,0.125 c 0.0877,0.1115 0.205162,0.2067 0.34375,0.2812 0.07211,0.039 0.163689,0.063 0.25,0.094 -0.112025,-0.088 -0.241283,-0.1616 -0.34375,-0.25 -0.09522,-0.082 -0.166348,-0.1713 -0.25,-0.25 z m 13.0625,0 c -0.08856,0.084 -0.179817,0.1624 -0.28125,0.25 -0.102467,0.088 -0.231725,0.1622 -0.34375,0.25 0.08631,-0.03 0.177893,-0.055 0.25,-0.094 0.147073,-0.079 0.253885,-0.1907 0.34375,-0.3125 l 0.03125,-0.094 z m -8.6875,0.75 c 0.804959,0.3877 1.486203,0.5809 2.15625,0.7187 0.636723,-0.1334 1.274121,-0.3636 2.03125,-0.7187 -0.648891,0.058 -1.322003,0.125 -2.03125,0.125 -0.755334,0 -1.470605,-0.059 -2.15625,-0.125 z m -4.21875,0.031 0.03125,0.1563 c 0.14542,0.2298 0.344564,0.4809 0.65625,0.75 0.1434,0.1238 0.331955,0.2479 0.5,0.375 0.278129,0.028 0.586981,0.044 0.9375,0.031 0.236957,-0.01 0.494195,-0.038 0.75,-0.062 -0.262213,-0.1353 -0.527179,-0.2605 -0.78125,-0.4062 -0.313148,-0.1798 -0.621024,-0.374 -0.90625,-0.5625 -0.449461,-0.02 -0.845855,-0.098 -1.1875,-0.2813 z m 12.78125,0.031 c -0.01166,0.01 -0.01799,0.024 -0.03125,0.031 -0.334319,0.1801 -0.746424,0.2597 -1.1875,0.2813 -0.285226,0.1885 -0.593102,0.3827 -0.90625,0.5625 -0.265623,0.1524 -0.539519,0.2656 -0.8125,0.4062 0.253912,0.025 0.513043,0.054 0.75,0.062 0.361949,0.013 0.675231,-2e-4 0.96875,-0.031 0.168045,-0.1271 0.3566,-0.2512 0.5,-0.375 0.32842,-0.2836 0.543626,-0.5426 0.6875,-0.7813 l 0.03125,-0.1562 z m -9.28125,0.031 c -0.513438,0.095 -1.02655,0.1843 -1.53125,0.2188 0.118562,0.072 0.222695,0.1492 0.34375,0.2187 0.413146,0.2371 0.853316,0.4833 1.28125,0.6875 0.600954,-0.08 1.191279,-0.204 1.78125,-0.3125 -0.566613,-0.1813 -1.165949,-0.4401 -1.875,-0.8125 z m 5.6875,0 c -0.704432,0.3622 -1.347049,0.6337 -1.90625,0.8125 0.591419,0.1065 1.181708,0.2305 1.78125,0.3125 0.451593,-0.2137 0.904651,-0.4355 1.34375,-0.6875 0.121056,-0.07 0.22658,-0.1472 0.34375,-0.2187 -0.51328,-0.034 -1.039075,-0.1252 -1.5625,-0.2188 z m -2.84375,1.0625 c -0.03264,0.01 -0.06093,0.025 -0.09375,0.031 -0.610704,0.1103 -1.295654,0.2406 -1.96875,0.3437 0.80099,0.344 1.538824,0.5729 2.09375,0.6875 0.533419,-0.1132 1.247364,-0.3673 2,-0.6875 -0.650508,-0.1009 -1.315849,-0.237 -1.90625,-0.3437 -0.04146,-0.01 -0.08375,-0.023 -0.125,-0.031 z M 36,1041.6747 c -0.07626,0.037 -0.135807,0.098 -0.21875,0.125 -0.172798,0.059 -0.363297,0.099 -0.5625,0.125 -0.394051,0.2862 -0.81902,0.5785 -1.28125,0.8438 -0.141707,0.081 -0.293402,0.1402 -0.4375,0.2187 0.137456,0.011 0.275029,0.026 0.40625,0.031 0.571946,0.021 1.076859,-0.042 1.4375,-0.1563 0.233867,-0.212 0.428392,-0.4075 0.5625,-0.5937 L 36,1041.6747 z m -12.15625,0.031 0.125,0.5625 c 0.127193,0.1849 0.277542,0.39 0.5,0.5937 0.006,0.01 0.02518,-0.01 0.03125,0 0.360615,0.1138 0.865814,0.1777 1.4375,0.1563 0.11114,0 0.228061,-0.023 0.34375,-0.031 -0.136264,-0.074 -0.272963,-0.1423 -0.40625,-0.2187 -0.476611,-0.2735 -0.909203,-0.5796 -1.3125,-0.875 -0.182282,-0.026 -0.375288,-0.042 -0.53125,-0.094 -0.06912,-0.023 -0.124095,-0.064 -0.1875,-0.094 z m 3.25,0.125 c -0.475796,0.06 -0.940123,0.1089 -1.375,0.125 -0.131884,0 -0.247952,10e-5 -0.375,0 0.243149,0.1612 0.48653,0.3175 0.75,0.4687 0.299907,0.1721 0.626268,0.3453 0.9375,0.5 0.632636,-0.081 1.298498,-0.1943 1.9375,-0.3125 -0.577495,-0.1891 -1.217233,-0.4715 -1.875,-0.7812 z m 5.59375,0 c -0.654424,0.3067 -1.301306,0.5969 -1.875,0.7812 0.65825,0.1215 1.343417,0.2285 2,0.3125 0.316009,-0.1564 0.63193,-0.3246 0.9375,-0.5 0.263471,-0.1512 0.506851,-0.3075 0.75,-0.4687 -0.124927,-10e-5 -0.243116,0 -0.375,0 -0.454283,-0.017 -0.939588,-0.061 -1.4375,-0.125 z m -2.78125,1 c -0.01966,0 -0.04324,0.028 -0.0625,0.031 -0.671324,0.1213 -1.421179,0.2624 -2.15625,0.375 0.844939,0.3785 1.63362,0.6559 2.21875,0.7813 0.567509,-0.1181 1.364744,-0.3875 2.1875,-0.75 -0.714397,-0.1111 -1.441613,-0.2885 -2.09375,-0.4063 -0.02792,-0.01 -0.06501,-0.025 -0.09375,-0.031 z m -5.75,0.3437 0.1875,1.0313 c 0.09889,0.09 0.231769,0.1611 0.40625,0.2187 0.340586,0.1123 0.821391,0.1763 1.375,0.1563 0.04918,0 0.106015,0 0.15625,0 -0.05314,-0.03 -0.103594,-0.064 -0.15625,-0.094 -0.671356,-0.3852 -1.29133,-0.7992 -1.78125,-1.2187 -0.0096,0 -0.02178,0 -0.03125,0 -0.01231,-0.011 -0.0191,-0.021 -0.03125,-0.031 -0.04672,-0.017 -0.08043,-0.042 -0.125,-0.062 z m 11.5625,0 c -0.05308,0.025 -0.09997,0.042 -0.15625,0.062 -0.02247,0.01 -0.03958,0.024 -0.0625,0.031 -0.48992,0.4195 -1.109895,0.8335 -1.78125,1.2187 -0.05266,0.03 -0.103112,0.064 -0.15625,0.094 0.04899,0 0.108182,0 0.15625,0 0.553609,0.021 1.034414,-0.044 1.375,-0.1563 0.170293,-0.056 0.284363,-0.133 0.375,-0.2187 0.01133,-0.011 0.021,-0.02 0.03125,-0.031 0.0052,-0.01 -0.0053,-0.023 0,-0.031 l 0.21875,-0.9688 z m -2.90625,0.1563 c -0.688523,0.344 -1.35997,0.6724 -1.96875,0.875 0.68133,0.1246 1.367662,0.2417 2.03125,0.3125 0.220798,-0.1148 0.442978,-0.2526 0.65625,-0.375 0.399104,-0.2291 0.758524,-0.4778 1.09375,-0.7188 -0.225116,0.013 -0.467733,0.01 -0.71875,0 -0.345622,-0.013 -0.720854,-0.048 -1.09375,-0.094 z m -5.90625,0.031 c -0.327876,0.038 -0.663164,0.051 -0.96875,0.062 -0.261931,0.01 -0.516352,0.015 -0.75,0 0.343709,0.2491 0.712619,0.4821 1.125,0.7188 0.221015,0.1268 0.458545,0.2564 0.6875,0.375 0.651685,-0.076 1.337552,-0.189 2,-0.3125 -0.619119,-0.2041 -1.328675,-0.5006 -2.03125,-0.8438 -0.02067,0 -0.04188,0 -0.0625,0 z m 3.03125,1.0625 c -0.02919,0.01 -0.06542,0.026 -0.09375,0.031 -0.69569,0.1257 -1.46284,0.2653 -2.21875,0.375 0.882276,0.4158 1.714995,0.7185 2.3125,0.8437 0.596207,-0.1302 1.414144,-0.4351 2.28125,-0.8437 -0.75591,-0.1097 -1.52306,-0.2493 -2.21875,-0.375 -0.01962,0 -0.04245,-0.027 -0.0625,-0.031 z M 25,1044.8935 c 0.422319,0.3502 0.946708,0.6957 1.53125,1.0312 0.131575,0.075 0.270785,0.1461 0.40625,0.2188 0.676713,-0.061 1.392133,-0.1904 2.09375,-0.3125 -0.642444,-0.2229 -1.368364,-0.5325 -2.09375,-0.9063 -0.265321,0.028 -0.531213,0.053 -0.78125,0.062 -0.428619,0.016 -0.805639,-0.028 -1.15625,-0.094 z m 9.84375,0 c -0.350611,0.066 -0.727631,0.11 -1.15625,0.094 -0.250037,-0.01 -0.515929,-0.034 -0.78125,-0.062 -0.715847,0.3689 -1.426957,0.6855 -2.0625,0.9063 0.71629,0.1242 1.445306,0.2199 2.125,0.2812 0.113036,-0.061 0.233558,-0.1243 0.34375,-0.1875 0.584542,-0.3355 1.108931,-0.681 1.53125,-1.0312 z m 0.5,0.094 c -0.0544,0.052 -0.09667,0.1048 -0.15625,0.1563 -0.408373,0.3526 -0.917516,0.7033 -1.46875,1.0312 0.427668,0 0.822887,-0.035 1.09375,-0.125 0.179646,-0.059 0.28773,-0.1507 0.375,-0.25 l 0.15625,-0.8125 z m -10.84375,0.031 0.15625,0.7812 c 0.08727,0.099 0.195354,0.1907 0.375,0.25 0.270771,0.089 0.666259,0.126 1.09375,0.125 -0.558942,-0.3288 -1.090317,-0.6775 -1.5,-1.0312 -0.04766,-0.041 -0.08065,-0.084 -0.125,-0.125 z m 5.40625,1.0625 c -0.01968,0 -0.04324,0.028 -0.0625,0.031 -0.689451,0.1246 -1.466113,0.2802 -2.21875,0.375 0.878911,0.4227 1.720963,0.7485 2.3125,0.875 0.614291,-0.1359 1.478505,-0.468 2.375,-0.9062 -0.780446,-0.095 -1.595784,-0.2143 -2.3125,-0.3438 -0.02881,-0.01 -0.06401,-0.025 -0.09375,-0.031 z m -4.8125,0.4062 c 0.02381,0.023 0.03724,0.039 0.0625,0.062 0.380561,0.3542 0.890453,0.7376 1.5,1.0938 0.08875,0.052 0.188648,0.1052 0.28125,0.1562 0.643938,-0.052 1.342423,-0.1631 2.03125,-0.2812 -0.675206,-0.2328 -1.439377,-0.5673 -2.1875,-0.9688 -0.148293,0.011 -0.295421,0.026 -0.4375,0.031 -0.470163,0.017 -0.885318,-0.01 -1.25,-0.094 z m 9.65625,0 c -0.364682,0.087 -0.779837,0.1109 -1.25,0.094 -0.142079,-0.01 -0.289207,-0.02 -0.4375,-0.031 -0.747992,0.4014 -1.513515,0.7345 -2.1875,0.9688 0.688827,0.1181 1.387312,0.2293 2.03125,0.2812 0.08417,-0.047 0.168808,-0.1088 0.25,-0.1562 0.609547,-0.3562 1.150689,-0.7396 1.53125,-1.0938 0.02526,-0.024 0.03869,-0.039 0.0625,-0.062 z m -9.875,0.375 0.125,0.5313 c 0.05158,0.081 0.08721,0.1637 0.15625,0.25 0.05959,0.034 0.107972,0.068 0.1875,0.094 0.222963,0.071 0.533102,0.092 0.875,0.094 -0.518663,-0.3164 -0.991119,-0.6406 -1.34375,-0.9688 z m 10.09375,0 c -0.352631,0.3282 -0.825087,0.6524 -1.34375,0.9688 0.341898,-9e-4 0.652036,-0.02 0.875,-0.094 0.07953,-0.026 0.127912,-0.06 0.1875,-0.094 0.06904,-0.086 0.104671,-0.1689 0.15625,-0.25 l 0.125,-0.5313 z m -5.09375,0.9375 c -0.694824,0.1255 -1.487103,0.2775 -2.25,0.375 0.69035,0.3307 1.451745,0.6384 2.21875,0.875 0.0096,0 0.0217,0 0.03125,0 0.805231,-0.2381 1.590932,-0.5264 2.3125,-0.875 -0.753644,-0.098 -1.523926,-0.2495 -2.21875,-0.375 -0.01772,0 -0.04442,0 -0.0625,0 -0.0088,0 -0.0225,0 -0.03125,0 z m -4.125,0.4063 c 0.354263,0.2944 0.804411,0.595 1.375,0.875 0.01095,0 0.02022,0 0.03125,0 0.559703,0.094 1.275383,0.1312 2,0.1562 -0.801989,-0.2853 -1.559372,-0.6273 -2.25,-1 -0.113602,0.01 -0.234631,0.027 -0.34375,0.031 -0.29728,0.011 -0.559892,-0.026 -0.8125,-0.062 z m 8.34375,0 c -0.261409,0.036 -0.54647,0.073 -0.84375,0.062 -0.109119,0 -0.230775,-0.023 -0.34375,-0.031 -0.688853,0.3701 -1.456644,0.7162 -2.25,1 0.713863,-0.019 1.411481,-0.043 1.96875,-0.125 0.616387,-0.2924 1.095786,-0.5963 1.46875,-0.9062 z"
       style="fill:#2d7cc4;fill-opacity:1;stroke:none"
       inkscape:connector-curvature="0" />
  </g>
</svg>
