<?xml version="1.0" encoding="UTF-8" standalone="no"?>
<!-- Created with Inkscape (http://www.inkscape.org/) -->

<svg
   xmlns:dc="http://purl.org/dc/elements/1.1/"
   xmlns:cc="http://creativecommons.org/ns#"
   xmlns:rdf="http://www.w3.org/1999/02/22-rdf-syntax-ns#"
   xmlns:svg="http://www.w3.org/2000/svg"
   xmlns="http://www.w3.org/2000/svg"
   xmlns:sodipodi="http://sodipodi.sourceforge.net/DTD/sodipodi-0.dtd"
   xmlns:inkscape="http://www.inkscape.org/namespaces/inkscape"
   width="200"
   height="450"
   id="svg2"
   version="1.1"
   inkscape:version="0.48.5 r10040"
   sodipodi:docname="Wizzard-Progress.svg">
  <defs
     id="defs4" />
  <sodipodi:namedview
     id="base"
     pagecolor="#ffffff"
     bordercolor="#666666"
     borderopacity="1.0"
     inkscape:pageopacity="0.0"
     inkscape:pageshadow="2"
     inkscape:zoom="1.4"
     inkscape:cx="-163.99037"
     inkscape:cy="313.93224"
     inkscape:document-units="px"
     inkscape:current-layer="layer1"
     showgrid="false"
     inkscape:window-width="1871"
     inkscape:window-height="1056"
     inkscape:window-x="49"
     inkscape:window-y="24"
     inkscape:window-maximized="1" />
  <metadata
     id="metadata7">
    <rdf:RDF>
      <cc:Work
         rdf:about="">
        <dc:format>image/svg+xml</dc:format>
        <dc:type
           rdf:resource="http://purl.org/dc/dcmitype/StillImage" />
        <dc:title></dc:title>
      </cc:Work>
    </rdf:RDF>
  </metadata>
  <g
     inkscape:label="Ebene 1"
     inkscape:groupmode="layer"
     id="layer1"
     transform="translate(0,-602.3622)">
    <path
       transform="matrix(1.0390262,0,0,1.0390262,-108.58908,746.78955)"
       d="m 150,173.79076 c 0,11.83467 -9.5939,21.42857 -21.42857,21.42857 -11.83468,0 -21.42858,-9.5939 -21.42858,-21.42857 0,-11.83468 9.5939,-21.42858 21.42858,-21.42858 11.83467,0 21.42857,9.5939 21.42857,21.42858 z"
       sodipodi:ry="21.428572"
       sodipodi:rx="21.428572"
       sodipodi:cy="173.79076"
       sodipodi:cx="128.57143"
       id="path3817"
       style="fill:#ff9500;fill-opacity:1;stroke:#cccccc;stroke-width:5.26483774;stroke-miterlimit:4;stroke-dasharray:none"
       sodipodi:type="arc" />
    <path
       sodipodi:type="arc"
       style="fill:#ff9500;fill-opacity:1;stroke:#cccccc;stroke-width:5.26483774;stroke-miterlimit:4;stroke-dasharray:none"
       id="path3815"
       sodipodi:cx="128.57143"
       sodipodi:cy="173.79076"
       sodipodi:rx="21.428572"
       sodipodi:ry="21.428572"
       d="m 150,173.79076 c 0,11.83467 -9.5939,21.42857 -21.42857,21.42857 -11.83468,0 -21.42858,-9.5939 -21.42858,-21.42857 0,-11.83468 9.5939,-21.42858 21.42858,-21.42858 11.83467,0 21.42857,9.5939 21.42857,21.42858 z"
       transform="matrix(1.0390262,0,0,1.0390262,-58.589081,746.78955)" />
    <path
       transform="matrix(1.0390262,0,0,1.0390262,-8.589081,746.78955)"
       d="m 150,173.79076 c 0,11.83467 -9.5939,21.42857 -21.42857,21.42857 -11.83468,0 -21.42858,-9.5939 -21.42858,-21.42857 0,-11.83468 9.5939,-21.42858 21.42858,-21.42858 11.83467,0 21.42857,9.5939 21.42857,21.42858 z"
       sodipodi:ry="21.428572"
       sodipodi:rx="21.428572"
       sodipodi:cy="173.79076"
       sodipodi:cx="128.57143"
       id="path3813"
       style="fill:#ff9500;fill-opacity:1;stroke:#cccccc;stroke-width:5.26483774;stroke-miterlimit:4;stroke-dasharray:none"
       sodipodi:type="arc" />
    <path
       sodipodi:type="arc"
       style="fill:#0c5da5;fill-opacity:1;stroke:#000000;stroke-width:5.26483774;stroke-miterlimit:4;stroke-dasharray:none"
       id="path2985"
       sodipodi:cx="128.57143"
       sodipodi:cy="173.79076"
       sodipodi:rx="21.428572"
       sodipodi:ry="21.428572"
       d="m 150,173.79076 c 0,11.83467 -9.5939,21.42857 -21.42857,21.42857 -11.83468,0 -21.42858,-9.5939 -21.42858,-21.42857 0,-11.83468 9.5939,-21.42858 21.42858,-21.42858 11.83467,0 21.42857,9.5939 21.42857,21.42858 z"
       transform="matrix(1.0390262,0,0,1.0390262,-108.58908,446.7891)" />
    <g
       transform="scale(0.99951375,1.0004865)"
       style="font-size:39.98267746px;font-style:normal;font-weight:normal;line-height:125%;letter-spacing:0px;word-spacing:0px;fill:#000000;fill-opacity:1;stroke:none;font-family:Sans"
       id="text3755">
      <path
         d="m 17.719842,638.30608 6.137341,0 0,-19.53154 c -1.1e-5,-0.55973 0.01998,-1.15281 0.05997,-1.77923 l -5.097791,4.37811 c -0.173264,0.14662 -0.346522,0.23991 -0.519775,0.27988 -0.173263,0.0267 -0.333194,0.0267 -0.479792,0 -0.146608,-0.0266 -0.286547,-0.0799 -0.419818,-0.15994 -0.119953,-0.0799 -0.213245,-0.16657 -0.279879,-0.25988 l -1.119515,-1.53934 8.536302,-7.3768 2.898744,0 0,25.98874 5.637558,0 0,2.71882 -15.353349,0 0,-2.71882"
         style="font-variant:normal;font-stretch:normal;font-family:Lato;-inkscape-font-specification:Lato"
         id="path3963" />
    </g>
    <path
       transform="matrix(1.0390262,0,0,1.0390262,-108.58908,496.7891)"
       d="m 150,173.79076 c 0,11.83467 -9.5939,21.42857 -21.42857,21.42857 -11.83468,0 -21.42858,-9.5939 -21.42858,-21.42857 0,-11.83468 9.5939,-21.42858 21.42858,-21.42858 11.83467,0 21.42857,9.5939 21.42857,21.42858 z"
       sodipodi:ry="21.428572"
       sodipodi:rx="21.428572"
       sodipodi:cy="173.79076"
       sodipodi:cx="128.57143"
       id="path3759"
       style="fill:#0c5da5;fill-opacity:1;stroke:#cccccc;stroke-width:5.26483774;stroke-miterlimit:4;stroke-dasharray:none"
       sodipodi:type="arc" />
    <g
       transform="scale(0.99951374,1.0004865)"
       style="font-size:39.98267746px;font-style:normal;font-weight:normal;line-height:125%;letter-spacing:0px;word-spacing:0px;fill:#000000;fill-opacity:1;stroke:none;font-family:Sans"
       id="text3761">
      <path
         d="m 17.719842,688.28179 6.137341,0 0,-19.53154 c -1.1e-5,-0.55973 0.01998,-1.15281 0.05997,-1.77923 l -5.097791,4.3781 c -0.173264,0.14663 -0.346522,0.23992 -0.519775,0.27988 -0.173263,0.0267 -0.333194,0.0267 -0.479792,0 -0.146608,-0.0266 -0.286547,-0.0799 -0.419818,-0.15993 -0.119953,-0.0799 -0.213245,-0.16657 -0.279879,-0.25988 l -1.119515,-1.53934 8.536302,-7.3768 2.898744,0 0,25.98874 5.637558,0 0,2.71882 -15.353349,0 0,-2.71882"
         style="font-variant:normal;font-stretch:normal;font-family:Lato;-inkscape-font-specification:Lato"
         id="path4038" />
    </g>
    <path
       sodipodi:type="arc"
       style="fill:none;fill-opacity:1;stroke:#cccccc;stroke-width:5.26483773999999993;stroke-miterlimit:4;stroke-dasharray:none"
       id="path3765"
       sodipodi:cx="128.57143"
       sodipodi:cy="173.79076"
       sodipodi:rx="21.428572"
       sodipodi:ry="21.428572"
       d="m 150,173.79076 c 0,11.83467 -9.5939,21.42857 -21.42857,21.42857 -11.83468,0 -21.42858,-9.5939 -21.42858,-21.42857 0,-11.83468 9.5939,-21.42858 21.42858,-21.42858 11.83467,0 21.42857,9.5939 21.42857,21.42858 z"
       transform="matrix(1.0390262,0,0,1.0390262,-58.589081,496.7891)" />
    <g
       transform="scale(0.99951374,1.0004865)"
       style="font-size:39.98267746px;font-style:normal;font-weight:normal;line-height:125%;letter-spacing:0px;word-spacing:0px;fill:#cccccc;fill-opacity:1;stroke:none;font-family:Sans"
       id="text3767">
      <path
         d="m 74.561215,662.03316 c 1.212795,3e-5 2.345637,0.17995 3.398528,0.53977 1.052861,0.35987 1.965798,0.88631 2.738813,1.57931 0.77298,0.67973 1.379383,1.51271 1.819212,2.49892 0.439789,0.98626 0.659694,2.10578 0.659714,3.35854 -2e-5,1.06623 -0.159951,2.05913 -0.479792,2.97871 -0.319881,0.9063 -0.753026,1.77259 -1.299437,2.59888 -0.546448,0.82632 -1.179506,1.63264 -1.899177,2.41895 -0.706377,0.78634 -1.459383,1.57933 -2.259021,2.37897 l -7.556726,7.71666 c 0.533095,-0.1466 1.07286,-0.25989 1.619298,-0.33986 0.546421,-0.0933 1.072859,-0.13993 1.579316,-0.13994 l 9.595842,0 c 0.386479,10e-6 0.693013,0.11329 0.919602,0.33986 0.226548,0.22657 0.339832,0.51977 0.339853,0.87962 l 0,2.15906 -19.11172,0 0,-1.21947 c -2e-6,-0.25322 0.05331,-0.51311 0.159931,-0.77966 0.106618,-0.26655 0.273212,-0.51311 0.499783,-0.73968 l 9.176025,-9.21601 c 0.759658,-0.77299 1.45269,-1.51266 2.079099,-2.21904 0.626381,-0.71967 1.159482,-1.43936 1.599307,-2.15906 0.439794,-0.71967 0.779646,-1.44603 1.019558,-2.17906 0.23988,-0.74632 0.359827,-1.53931 0.359844,-2.37897 -1.7e-5,-0.83961 -0.133292,-1.57263 -0.399827,-2.19905 -0.266567,-0.63969 -0.633074,-1.16613 -1.099523,-1.57931 -0.453152,-0.41313 -0.992918,-0.71966 -1.619299,-0.9196 -0.626408,-0.21322 -1.299449,-0.31984 -2.019125,-0.31986 -0.733026,2e-5 -1.406068,0.10664 -2.019125,0.31986 -0.613077,0.21326 -1.159506,0.51313 -1.63929,0.89961 -0.466472,0.37319 -0.859634,0.81967 -1.179489,1.33942 -0.319868,0.51979 -0.546436,1.09288 -0.679705,1.71925 -0.159937,0.46649 -0.379841,0.77968 -0.659714,0.93959 -0.266557,0.14663 -0.646392,0.18661 -1.139507,0.11995 l -1.859194,-0.31986 c 0.186583,-1.30608 0.546427,-2.45891 1.079532,-3.4585 0.546426,-1.01287 1.226131,-1.85917 2.039117,-2.5389 0.826302,-0.67968 1.765894,-1.19279 2.818778,-1.53933 1.052868,-0.35982 2.192373,-0.53974 3.418519,-0.53977"
         style="font-variant:normal;font-stretch:normal;fill:#cccccc;font-family:Lato;-inkscape-font-specification:Lato"
         id="path4035" />
    </g>
    <path
       sodipodi:type="arc"
       style="fill:#ff9500;fill-opacity:1;stroke:#cccccc;stroke-width:5.26483774;stroke-miterlimit:4;stroke-dasharray:none"
       id="path3771"
       sodipodi:cx="128.57143"
       sodipodi:cy="173.79076"
       sodipodi:rx="21.428572"
       sodipodi:ry="21.428572"
       d="m 150,173.79076 c 0,11.83467 -9.5939,21.42857 -21.42857,21.42857 -11.83468,0 -21.42858,-9.5939 -21.42858,-21.42857 0,-11.83468 9.5939,-21.42858 21.42858,-21.42858 11.83467,0 21.42857,9.5939 21.42857,21.42858 z"
       transform="matrix(1.0390262,0,0,1.0390262,-108.58908,596.7896)" />
    <g
       transform="scale(0.99951374,1.0004865)"
       style="font-size:39.98267746px;font-style:normal;font-weight:normal;line-height:125%;letter-spacing:0px;word-spacing:0px;fill:#000000;fill-opacity:1;stroke:none;font-family:Sans"
       id="text3773">
      <path
         d="m 17.719842,788.23381 6.137341,0 0,-19.53153 c -1.1e-5,-0.55974 0.01998,-1.15281 0.05997,-1.77923 l -5.097791,4.3781 c -0.173264,0.14662 -0.346522,0.23992 -0.519775,0.27988 -0.173263,0.0267 -0.333194,0.0267 -0.479792,0 -0.146608,-0.0266 -0.286547,-0.08 -0.419818,-0.15993 -0.119953,-0.08 -0.213245,-0.16658 -0.279879,-0.25989 l -1.119515,-1.53933 8.536302,-7.37681 2.898744,0 0,25.98874 5.637558,0 0,2.71883 -15.353349,0 0,-2.71883"
         style="font-variant:normal;font-stretch:normal;font-family:Lato;-inkscape-font-specification:Lato"
         id="path4026" />
    </g>
    <path
       transform="matrix(1.0390262,0,0,1.0390262,-58.589081,596.7896)"
       d="m 150,173.79076 c 0,11.83467 -9.5939,21.42857 -21.42857,21.42857 -11.83468,0 -21.42858,-9.5939 -21.42858,-21.42857 0,-11.83468 9.5939,-21.42858 21.42858,-21.42858 11.83467,0 21.42857,9.5939 21.42857,21.42858 z"
       sodipodi:ry="21.428572"
       sodipodi:rx="21.428572"
       sodipodi:cy="173.79076"
       sodipodi:cx="128.57143"
       id="path3777"
       style="fill:#ff9500;fill-opacity:1;stroke:#cccccc;stroke-width:5.26483774;stroke-miterlimit:4;stroke-dasharray:none"
       sodipodi:type="arc" />
    <g
       transform="scale(0.99951374,1.0004865)"
       style="font-size:39.98267746px;font-style:normal;font-weight:normal;line-height:125%;letter-spacing:0px;word-spacing:0px;fill:#000000;fill-opacity:1;stroke:none;font-family:Sans"
       id="text3779">
      <path
         d="m 74.561215,761.98519 c 1.212795,3e-5 2.345637,0.17995 3.398528,0.53976 1.052861,0.35988 1.965798,0.88631 2.738813,1.57932 0.77298,0.67973 1.379383,1.5127 1.819212,2.49892 0.439789,0.98626 0.659694,2.10577 0.659714,3.35854 -2e-5,1.06623 -0.159951,2.05913 -0.479792,2.97871 -0.319881,0.90629 -0.753026,1.77258 -1.299437,2.59887 -0.546448,0.82633 -1.179506,1.63264 -1.899177,2.41896 -0.706377,0.78633 -1.459383,1.57932 -2.259021,2.37897 l -7.556726,7.71665 c 0.533095,-0.1466 1.07286,-0.25988 1.619298,-0.33985 0.546421,-0.0933 1.072859,-0.13994 1.579316,-0.13994 l 9.595842,0 c 0.386479,0 0.693013,0.11329 0.919602,0.33985 0.226548,0.22657 0.339832,0.51978 0.339853,0.87962 l 0,2.15907 -19.11172,0 0,-1.21947 c -2e-6,-0.25323 0.05331,-0.51311 0.159931,-0.77967 0.106618,-0.26655 0.273212,-0.51311 0.499783,-0.73968 l 9.176025,-9.216 c 0.759658,-0.77299 1.45269,-1.51267 2.079099,-2.21904 0.626381,-0.71968 1.159482,-1.43936 1.599307,-2.15907 0.439794,-0.71967 0.779646,-1.44602 1.019558,-2.17905 0.23988,-0.74633 0.359827,-1.53932 0.359844,-2.37897 -1.7e-5,-0.83962 -0.133292,-1.57263 -0.399827,-2.19905 -0.266567,-0.6397 -0.633074,-1.16614 -1.099523,-1.57932 -0.453152,-0.41312 -0.992918,-0.71966 -1.619299,-0.9196 -0.626408,-0.21321 -1.299449,-0.31983 -2.019125,-0.31986 -0.733026,3e-5 -1.406068,0.10665 -2.019125,0.31986 -0.613077,0.21327 -1.159506,0.51314 -1.63929,0.89961 -0.466472,0.3732 -0.859634,0.81967 -1.179489,1.33942 -0.319868,0.5198 -0.546436,1.09289 -0.679705,1.71926 -0.159937,0.46648 -0.379841,0.77968 -0.659714,0.93959 -0.266557,0.14662 -0.646392,0.18661 -1.139507,0.11995 l -1.859194,-0.31986 c 0.186583,-1.30608 0.546427,-2.45891 1.079532,-3.4585 0.546426,-1.01287 1.226131,-1.85917 2.039117,-2.5389 0.826302,-0.67968 1.765894,-1.19279 2.818778,-1.53934 1.052868,-0.35981 2.192373,-0.53973 3.418519,-0.53976"
         style="font-variant:normal;font-stretch:normal;font-family:Lato;-inkscape-font-specification:Lato"
         id="path4023" />
    </g>
    <path
       sodipodi:type="arc"
       style="fill:#ff9500;fill-opacity:1;stroke:#000000;stroke-width:5.26483774;stroke-miterlimit:4;stroke-dasharray:none"
       id="path3783"
       sodipodi:cx="128.57143"
       sodipodi:cy="173.79076"
       sodipodi:rx="21.428572"
       sodipodi:ry="21.428572"
       d="m 150,173.79076 c 0,11.83467 -9.5939,21.42857 -21.42857,21.42857 -11.83468,0 -21.42858,-9.5939 -21.42858,-21.42857 0,-11.83468 9.5939,-21.42858 21.42858,-21.42858 11.83467,0 21.42857,9.5939 21.42857,21.42858 z"
       transform="matrix(1.0390262,0,0,1.0390262,-8.589081,596.7896)" />
    <g
       transform="scale(0.99951374,1.0004865)"
       style="font-size:39.98267746px;font-style:normal;font-weight:normal;line-height:125%;letter-spacing:0px;word-spacing:0px;fill:#000000;fill-opacity:1;stroke:none;font-family:Sans"
       id="text3785">
      <path
         d="m 124.72548,761.98519 c 1.2128,3e-5 2.33231,0.17328 3.35855,0.51977 1.0262,0.34655 1.90582,0.83967 2.63885,1.47936 0.74633,0.63975 1.32608,1.41275 1.73925,2.319 0.41313,0.90629 0.61971,1.91252 0.61973,3.01869 -2e-5,0.90629 -0.11997,1.71927 -0.35984,2.43894 -0.22659,0.70638 -0.55978,1.33278 -0.99957,1.87919 -0.4265,0.53312 -0.94628,0.98625 -1.55932,1.35941 -0.61309,0.37319 -1.29946,0.67306 -2.05911,0.89961 1.86584,0.49313 3.26523,1.31944 4.19818,2.47892 0.94623,1.15951 1.41936,2.61222 1.41938,4.35812 -2e-5,1.31943 -0.25324,2.50558 -0.75967,3.55845 -0.49314,1.05289 -1.17284,1.95249 -2.03911,2.69884 -0.86631,0.73301 -1.87921,1.29943 -3.03869,1.69926 -1.14618,0.3865 -2.37898,0.57975 -3.6984,0.57975 -1.51935,0 -2.81878,-0.18659 -3.89831,-0.55976 -1.07953,-0.3865 -1.99247,-0.91294 -2.73881,-1.57932 -0.74635,-0.66637 -1.35941,-1.4527 -1.8392,-2.35897 -0.4798,-0.9196 -0.88629,-1.9125 -1.21947,-2.97871 l 1.53933,-0.63973 c 0.39982,-0.17325 0.78632,-0.21989 1.1595,-0.13993 0.38649,0.08 0.66637,0.29987 0.83963,0.65971 0.17326,0.37318 0.3865,0.81965 0.63973,1.33942 0.26654,0.51978 0.62638,1.01956 1.07953,1.49935 0.45313,0.4798 1.02621,0.88629 1.71925,1.21947 0.70635,0.33319 1.5993,0.49979 2.67884,0.49978 0.99956,1e-5 1.87251,-0.15992 2.61887,-0.47979 0.75965,-0.33318 1.38605,-0.75966 1.87918,-1.27944 0.50643,-0.51977 0.88627,-1.09952 1.13951,-1.73925 0.25321,-0.63972 0.37982,-1.27277 0.37984,-1.89918 -2e-5,-0.77299 -0.1,-1.47935 -0.29987,-2.11908 -0.19994,-0.63971 -0.57311,-1.1928 -1.11952,-1.65928 -0.54645,-0.46645 -1.29945,-0.83296 -2.25902,-1.09952 -0.94627,-0.26654 -2.16574,-0.39982 -3.65842,-0.39983 l 0,-2.57888 c 1.22613,-0.0133 2.26568,-0.14659 3.11865,-0.39983 0.86628,-0.25321 1.56598,-0.59972 2.09909,-1.03955 0.54642,-0.43979 0.93958,-0.96623 1.17949,-1.57932 0.25321,-0.61304 0.37982,-1.29275 0.37984,-2.03911 -2e-5,-0.82629 -0.13329,-1.54598 -0.39983,-2.15907 -0.25324,-0.61304 -0.60642,-1.11949 -1.05954,-1.51934 -0.45315,-0.3998 -0.99292,-0.69967 -1.6193,-0.89961 -0.61308,-0.19989 -1.27946,-0.29984 -1.99913,-0.29987 -0.7197,3e-5 -1.39274,0.10665 -2.01913,0.31986 -0.61307,0.21327 -1.1595,0.51314 -1.63929,0.89961 -0.46647,0.3732 -0.85963,0.81967 -1.17949,1.33942 -0.31986,0.5198 -0.54643,1.09289 -0.6797,1.71926 -0.17327,0.46648 -0.39317,0.77968 -0.65972,0.93959 -0.25323,0.14662 -0.6264,0.18661 -1.11951,0.11995 l -1.8592,-0.31986 c 0.18659,-1.30608 0.54643,-2.45891 1.07954,-3.4585 0.53309,-1.01287 1.20614,-1.85917 2.01912,-2.5389 0.8263,-0.67968 1.7659,-1.19279 2.81878,-1.53934 1.0662,-0.35981 2.21236,-0.53973 3.43851,-0.53976"
         style="font-variant:normal;font-stretch:normal;font-family:Lato;-inkscape-font-specification:Lato"
         id="path4020" />
    </g>
    <path
       transform="matrix(1.0390262,0,0,1.0390262,-108.58908,746.78955)"
       d="m 127.54369,152.38684 c 11.82105,-0.5676 21.86404,8.55512 22.43165,20.37618 0.0345,0.71749 0.0328,1.43625 -0.005,2.15358"
       sodipodi:ry="21.428572"
       sodipodi:rx="21.428572"
       sodipodi:cy="173.79076"
       sodipodi:cx="128.57143"
       id="path3789"
       style="fill:none;stroke:#000000;stroke-width:5.26483774;stroke-miterlimit:4;stroke-dasharray:none"
       sodipodi:type="arc"
       sodipodi:start="4.6644095"
       sodipodi:end="6.3357488"
       sodipodi:open="true" />
    <g
       transform="scale(0.99951374,1.0004865)"
       style="font-size:39.98267746px;font-style:normal;font-weight:normal;line-height:125%;letter-spacing:0px;word-spacing:0px;fill:#000000;fill-opacity:1;stroke:none;font-family:Sans"
       id="text3791">
      <path
         d="m 17.719842,938.16094 6.137341,0 0,-19.53154 c -1.1e-5,-0.55973 0.01998,-1.15281 0.05997,-1.77923 l -5.097791,4.3781 c -0.173264,0.14663 -0.346522,0.23992 -0.519775,0.27988 -0.173263,0.0267 -0.333194,0.0267 -0.479792,0 -0.146608,-0.0266 -0.286547,-0.0799 -0.419818,-0.15993 -0.119953,-0.0799 -0.213245,-0.16657 -0.279879,-0.25988 l -1.119515,-1.53934 8.536302,-7.3768 2.898744,0 0,25.98874 5.637558,0 0,2.71882 -15.353349,0 0,-2.71882"
         style="font-variant:normal;font-stretch:normal;font-family:Lato;-inkscape-font-specification:Lato"
         id="path3999" />
    </g>
    <path
       sodipodi:type="arc"
       style="fill:none;stroke:#000000;stroke-width:5.26483774;stroke-miterlimit:4;stroke-dasharray:none"
       id="path3795"
       sodipodi:cx="128.57143"
       sodipodi:cy="173.79076"
       sodipodi:rx="21.428572"
       sodipodi:ry="21.428572"
       d="m 127.50027,152.38897 c 11.81988,-0.59158 21.88135,8.51075 22.47294,20.33063 0.59158,11.81988 -8.51075,21.88135 -20.33062,22.47294 -0.47231,0.0236 -0.94526,0.0316 -1.41809,0.024"
       transform="matrix(1.0390262,0,0,1.0390262,-58.589081,746.78955)"
       sodipodi:start="4.6623807"
       sodipodi:end="7.8701723"
       sodipodi:open="true" />
    <g
       transform="scale(0.99951374,1.0004865)"
       style="font-size:39.98267746px;font-style:normal;font-weight:normal;line-height:125%;letter-spacing:0px;word-spacing:0px;fill:#000000;fill-opacity:1;stroke:none;font-family:Sans"
       id="text3797">
      <path
         d="m 74.561215,911.91231 c 1.212795,3e-5 2.345637,0.17995 3.398528,0.53977 1.052861,0.35987 1.965798,0.88631 2.738813,1.57931 0.77298,0.67973 1.379383,1.51271 1.819212,2.49892 0.439789,0.98626 0.659694,2.10578 0.659714,3.35855 -2e-5,1.06622 -0.159951,2.05912 -0.479792,2.9787 -0.319881,0.9063 -0.753026,1.77259 -1.299437,2.59888 -0.546448,0.82632 -1.179506,1.63264 -1.899177,2.41895 -0.706377,0.78634 -1.459383,1.57933 -2.259021,2.37897 l -7.556726,7.71666 c 0.533095,-0.1466 1.07286,-0.25989 1.619298,-0.33986 0.546421,-0.0933 1.072859,-0.13993 1.579316,-0.13994 l 9.595842,0 c 0.386479,10e-6 0.693013,0.11329 0.919602,0.33986 0.226548,0.22657 0.339832,0.51977 0.339853,0.87962 l 0,2.15906 -19.11172,0 0,-1.21947 c -2e-6,-0.25322 0.05331,-0.51311 0.159931,-0.77966 0.106618,-0.26655 0.273212,-0.51311 0.499783,-0.73968 l 9.176025,-9.21601 c 0.759658,-0.77299 1.45269,-1.51266 2.079099,-2.21904 0.626381,-0.71967 1.159482,-1.43936 1.599307,-2.15906 0.439794,-0.71967 0.779646,-1.44603 1.019558,-2.17906 0.23988,-0.74632 0.359827,-1.53931 0.359844,-2.37897 -1.7e-5,-0.83961 -0.133292,-1.57263 -0.399827,-2.19905 -0.266567,-0.63969 -0.633074,-1.16613 -1.099523,-1.57931 -0.453152,-0.41313 -0.992918,-0.71966 -1.619299,-0.9196 -0.626408,-0.21322 -1.299449,-0.31984 -2.019125,-0.31986 -0.733026,2e-5 -1.406068,0.10664 -2.019125,0.31986 -0.613077,0.21326 -1.159506,0.51313 -1.63929,0.89961 -0.466472,0.37319 -0.859634,0.81967 -1.179489,1.33942 -0.319868,0.51979 -0.546436,1.09288 -0.679705,1.71925 -0.159937,0.46649 -0.379841,0.77969 -0.659714,0.9396 -0.266557,0.14662 -0.646392,0.1866 -1.139507,0.11994 l -1.859194,-0.31986 c 0.186583,-1.30608 0.546427,-2.45891 1.079532,-3.4585 0.546426,-1.01287 1.226131,-1.85917 2.039117,-2.5389 0.826302,-0.67968 1.765894,-1.19279 2.818778,-1.53933 1.052868,-0.35982 2.192373,-0.53974 3.418519,-0.53977"
         style="font-variant:normal;font-stretch:normal;font-family:Lato;-inkscape-font-specification:Lato"
         id="path3996" />
    </g>
    <path
       transform="matrix(1.0390262,0,0,1.0390262,-8.589081,746.78955)"
       d="m 127.50284,152.38884 c 11.81995,-0.59016 21.88033,8.51338 22.4705,20.33333 0.59016,11.81995 -8.51338,21.88033 -20.33333,22.4705 -11.81995,0.59016 -21.88033,-8.51338 -22.4705,-20.33333 -0.0357,-0.71429 -0.0355,-1.42992 3.6e-4,-2.1442"
       sodipodi:ry="21.428572"
       sodipodi:rx="21.428572"
       sodipodi:cy="173.79076"
       sodipodi:cx="128.57143"
       id="path3801"
       style="fill:none;stroke:#000000;stroke-width:5.26483774;stroke-miterlimit:4;stroke-dasharray:none"
       sodipodi:type="arc"
       sodipodi:start="4.662501"
       sodipodi:end="9.4749945"
       sodipodi:open="true" />
    <g
       transform="scale(0.99951374,1.0004865)"
       style="font-size:39.98267746px;font-style:normal;font-weight:normal;line-height:125%;letter-spacing:0px;word-spacing:0px;fill:#000000;fill-opacity:1;stroke:none;font-family:Sans"
       id="text3803">
      <path
         d="m 124.72548,911.91231 c 1.2128,3e-5 2.33231,0.17329 3.35855,0.51978 1.0262,0.34654 1.90582,0.83966 2.63885,1.47935 0.74633,0.63975 1.32608,1.41275 1.73925,2.319 0.41313,0.9063 0.61971,1.91253 0.61973,3.01869 -2e-5,0.9063 -0.11997,1.71928 -0.35984,2.43895 -0.22659,0.70637 -0.55978,1.33277 -0.99957,1.87918 -0.4265,0.53312 -0.94628,0.98626 -1.55932,1.35941 -0.61309,0.37319 -1.29946,0.67306 -2.05911,0.89961 1.86584,0.49314 3.26523,1.31944 4.19818,2.47893 0.94623,1.15951 1.41936,2.61221 1.41938,4.35811 -2e-5,1.31944 -0.25324,2.50559 -0.75967,3.55846 -0.49314,1.05288 -1.17284,1.95249 -2.03911,2.69883 -0.86631,0.73302 -1.87921,1.29944 -3.03869,1.69926 -1.14618,0.3865 -2.37898,0.57975 -3.6984,0.57975 -1.51935,0 -2.81878,-0.18658 -3.89831,-0.55976 -1.07953,-0.38649 -1.99247,-0.91293 -2.73881,-1.57931 -0.74635,-0.66638 -1.35941,-1.4527 -1.8392,-2.35898 -0.4798,-0.9196 -0.88629,-1.9125 -1.21947,-2.97871 l 1.53933,-0.63972 c 0.39982,-0.17325 0.78632,-0.2199 1.1595,-0.13994 0.38649,0.08 0.66637,0.29988 0.83963,0.65971 0.17326,0.37318 0.3865,0.81965 0.63973,1.33942 0.26654,0.51978 0.62638,1.01957 1.07953,1.49935 0.45313,0.4798 1.02621,0.88629 1.71925,1.21948 0.70635,0.33319 1.5993,0.49978 2.67884,0.49978 0.99956,0 1.87251,-0.15993 2.61887,-0.47979 0.75965,-0.33319 1.38605,-0.75967 1.87918,-1.27945 0.50643,-0.51977 0.88627,-1.09952 1.13951,-1.73925 0.25321,-0.63971 0.37982,-1.27277 0.37984,-1.89917 -2e-5,-0.77299 -0.1,-1.47935 -0.29987,-2.11908 -0.19994,-0.63972 -0.57311,-1.19281 -1.11952,-1.65929 -0.54645,-0.46645 -1.29945,-0.83296 -2.25902,-1.09952 -0.94627,-0.26654 -2.16574,-0.39981 -3.65842,-0.39983 l 0,-2.57888 c 1.22613,-0.0133 2.26568,-0.14659 3.11865,-0.39983 0.86628,-0.2532 1.56598,-0.59972 2.09909,-1.03955 0.54642,-0.43979 0.93958,-0.96622 1.17949,-1.57931 0.25321,-0.61305 0.37982,-1.29275 0.37984,-2.03912 -2e-5,-0.82628 -0.13329,-1.54597 -0.39983,-2.15906 -0.25324,-0.61305 -0.60642,-1.11949 -1.05954,-1.51934 -0.45315,-0.39981 -0.99292,-0.69968 -1.6193,-0.89961 -0.61308,-0.19989 -1.27946,-0.29985 -1.99913,-0.29987 -0.7197,2e-5 -1.39274,0.10664 -2.01913,0.31986 -0.61307,0.21326 -1.1595,0.51313 -1.63929,0.89961 -0.46647,0.37319 -0.85963,0.81967 -1.17949,1.33942 -0.31986,0.51979 -0.54643,1.09288 -0.6797,1.71925 -0.17327,0.46649 -0.39317,0.77969 -0.65972,0.9396 -0.25323,0.14662 -0.6264,0.1866 -1.11951,0.11994 l -1.8592,-0.31986 c 0.18659,-1.30608 0.54643,-2.45891 1.07954,-3.4585 0.53309,-1.01287 1.20614,-1.85917 2.01912,-2.5389 0.8263,-0.67968 1.7659,-1.19279 2.81878,-1.53933 1.0662,-0.35982 2.21236,-0.53974 3.43851,-0.53977"
         style="font-variant:normal;font-stretch:normal;font-family:Lato;-inkscape-font-specification:Lato"
         id="path3993" />
    </g>
    <path
       sodipodi:type="arc"
       style="fill:#ff9500;fill-opacity:1;stroke:#000000;stroke-width:5.26483774;stroke-miterlimit:4;stroke-dasharray:none"
       id="path3807"
       sodipodi:cx="128.57143"
       sodipodi:cy="173.79076"
       sodipodi:rx="21.428572"
       sodipodi:ry="21.428572"
       d="m 150,173.79076 c 0,11.83467 -9.5939,21.42857 -21.42857,21.42857 -11.83468,0 -21.42858,-9.5939 -21.42858,-21.42857 0,-11.83468 9.5939,-21.42858 21.42858,-21.42858 11.83467,0 21.42857,9.5939 21.42857,21.42858 z"
       transform="matrix(1.0390262,0,0,1.0390262,41.410919,746.78955)" />
    <g
       transform="scale(0.99951374,1.0004865)"
       style="font-size:39.98267746px;font-style:normal;font-weight:normal;line-height:125%;letter-spacing:0px;word-spacing:0px;fill:#000000;fill-opacity:1;stroke:none;font-family:Sans"
       id="text3809">
      <path
         d="m 180.50732,930.54424 4.33812,0 0,2.03912 c -2e-5,0.21324 -0.0667,0.39317 -0.19991,0.53976 -0.11997,0.14661 -0.31322,0.21991 -0.57975,0.21991 l -3.55846,0 0,7.53673 -3.11864,0 0,-7.53673 -12.7145,0 c -0.26655,0 -0.49978,-0.0733 -0.69969,-0.21991 -0.18659,-0.15992 -0.30654,-0.35317 -0.35985,-0.57975 l -0.35984,-1.81921 13.93396,-18.49199 3.31856,0 0,18.31207 m -3.11864,-11.81488 c -2e-5,-0.3465 0.007,-0.71967 0.02,-1.11952 0.0266,-0.41313 0.0733,-0.83295 0.13994,-1.25945 l -10.43548,14.19385 10.27555,0 0,-11.81488"
         style="font-variant:normal;font-stretch:normal;font-family:Lato;-inkscape-font-specification:Lato"
         id="path3990" />
    </g>
    <path
       sodipodi:type="arc"
       style="fill:#ff9500;fill-opacity:1;stroke:#cccccc;stroke-width:5.26483774;stroke-miterlimit:4;stroke-dasharray:none"
       id="path3819"
       sodipodi:cx="128.57143"
       sodipodi:cy="173.79076"
       sodipodi:rx="21.428572"
       sodipodi:ry="21.428572"
       d="m 150,173.79076 c 0,11.83467 -9.5939,21.42857 -21.42857,21.42857 -11.83468,0 -21.42858,-9.5939 -21.42858,-21.42857 0,-11.83468 9.5939,-21.42858 21.42858,-21.42858 11.83467,0 21.42857,9.5939 21.42857,21.42858 z"
       transform="matrix(1.0390262,0,0,1.0390262,-108.58908,546.7891)" />
    <g
       transform="scale(0.99951374,1.0004865)"
       style="font-size:39.98267746px;font-style:normal;font-weight:normal;line-height:125%;letter-spacing:0px;word-spacing:0px;fill:#000000;fill-opacity:1;stroke:none;font-family:Sans"
       id="text3821">
      <path
         d="m 17.719842,738.25737 6.137341,0 0,-19.53153 c -1.1e-5,-0.55974 0.01998,-1.15281 0.05997,-1.77923 l -5.097791,4.3781 c -0.173264,0.14662 -0.346522,0.23992 -0.519775,0.27988 -0.173263,0.0267 -0.333194,0.0267 -0.479792,0 -0.146608,-0.0266 -0.286547,-0.08 -0.419818,-0.15993 -0.119953,-0.08 -0.213245,-0.16658 -0.279879,-0.25989 l -1.119515,-1.53933 8.536302,-7.37681 2.898744,0 0,25.98874 5.637558,0 0,2.71883 -15.353349,0 0,-2.71883"
         style="font-variant:normal;font-stretch:normal;font-family:Lato;-inkscape-font-specification:Lato"
         id="path4032" />
    </g>
    <path
       transform="matrix(1.0390262,0,0,1.0390262,-58.589081,546.7891)"
       d="m 150,173.79076 c 0,11.83467 -9.5939,21.42857 -21.42857,21.42857 -11.83468,0 -21.42858,-9.5939 -21.42858,-21.42857 0,-11.83468 9.5939,-21.42858 21.42858,-21.42858 11.83467,0 21.42857,9.5939 21.42857,21.42858 z"
       sodipodi:ry="21.428572"
       sodipodi:rx="21.428572"
       sodipodi:cy="173.79076"
       sodipodi:cx="128.57143"
       id="path3825"
       style="fill:#0c5da5;fill-opacity:1;stroke:#000000;stroke-width:5.26483774;stroke-miterlimit:4;stroke-dasharray:none"
       sodipodi:type="arc" />
    <g
       transform="scale(0.99951374,1.0004865)"
       style="font-size:39.98267746px;font-style:normal;font-weight:normal;line-height:125%;letter-spacing:0px;word-spacing:0px;fill:#000000;fill-opacity:1;stroke:none;font-family:Sans"
       id="text3827">
      <path
         d="m 74.561215,712.00875 c 1.212795,3e-5 2.345637,0.17995 3.398528,0.53976 1.052861,0.35987 1.965798,0.88631 2.738813,1.57932 0.77298,0.67973 1.379383,1.5127 1.819212,2.49892 0.439789,0.98626 0.659694,2.10577 0.659714,3.35854 -2e-5,1.06623 -0.159951,2.05913 -0.479792,2.97871 -0.319881,0.90629 -0.753026,1.77258 -1.299437,2.59887 -0.546448,0.82633 -1.179506,1.63264 -1.899177,2.41896 -0.706377,0.78633 -1.459383,1.57932 -2.259021,2.37897 l -7.556726,7.71665 c 0.533095,-0.1466 1.07286,-0.25988 1.619298,-0.33985 0.546421,-0.0933 1.072859,-0.13994 1.579316,-0.13994 l 9.595842,0 c 0.386479,0 0.693013,0.11329 0.919602,0.33985 0.226548,0.22657 0.339832,0.51978 0.339853,0.87962 l 0,2.15907 -19.11172,0 0,-1.21948 c -2e-6,-0.25322 0.05331,-0.5131 0.159931,-0.77966 0.106618,-0.26655 0.273212,-0.51311 0.499783,-0.73968 l 9.176025,-9.216 c 0.759658,-0.77299 1.45269,-1.51267 2.079099,-2.21904 0.626381,-0.71968 1.159482,-1.43936 1.599307,-2.15907 0.439794,-0.71967 0.779646,-1.44602 1.019558,-2.17905 0.23988,-0.74633 0.359827,-1.53932 0.359844,-2.37897 -1.7e-5,-0.83962 -0.133292,-1.57263 -0.399827,-2.19905 -0.266567,-0.6397 -0.633074,-1.16614 -1.099523,-1.57932 -0.453152,-0.41312 -0.992918,-0.71966 -1.619299,-0.9196 -0.626408,-0.21321 -1.299449,-0.31983 -2.019125,-0.31986 -0.733026,3e-5 -1.406068,0.10665 -2.019125,0.31986 -0.613077,0.21327 -1.159506,0.51314 -1.63929,0.89961 -0.466472,0.3732 -0.859634,0.81967 -1.179489,1.33942 -0.319868,0.5198 -0.546436,1.09288 -0.679705,1.71926 -0.159937,0.46648 -0.379841,0.77968 -0.659714,0.93959 -0.266557,0.14662 -0.646392,0.18661 -1.139507,0.11995 l -1.859194,-0.31986 c 0.186583,-1.30608 0.546427,-2.45891 1.079532,-3.4585 0.546426,-1.01287 1.226131,-1.85917 2.039117,-2.5389 0.826302,-0.67968 1.765894,-1.19279 2.818778,-1.53934 1.052868,-0.35981 2.192373,-0.53973 3.418519,-0.53976"
         style="font-variant:normal;font-stretch:normal;font-family:Lato;-inkscape-font-specification:Lato"
         id="path4029" />
    </g>
    <path
       sodipodi:type="arc"
       style="fill:none;stroke:#000000;stroke-width:5.26483774;stroke-miterlimit:4;stroke-dasharray:none"
       id="path3831"
       sodipodi:cx="128.57143"
       sodipodi:cy="173.79076"
       sodipodi:rx="21.428572"
       sodipodi:ry="21.428572"
       d="m 127.89206,152.37296 c 11.82873,-0.37521 21.72196,8.90971 22.09717,20.73843 0.3752,11.82873 -8.90972,21.72196 -20.73844,22.09717 -0.50945,0.0162 -1.01932,0.0141 -1.52862,-0.006"
       transform="matrix(1.0390262,0,0,1.0390262,-108.58908,546.7891)"
       sodipodi:start="4.6806801"
       sodipodi:end="7.893624"
       sodipodi:open="true" />
    <path
       sodipodi:open="true"
       sodipodi:end="7.893624"
       sodipodi:start="4.6806801"
       transform="matrix(1.0390262,0,0,1.0390262,-108.58908,496.7891)"
       d="m 127.89206,152.37296 c 11.82873,-0.37521 21.72196,8.90971 22.09717,20.73843 0.3752,11.82873 -8.90972,21.72196 -20.73844,22.09717 -0.50945,0.0162 -1.01932,0.0141 -1.52862,-0.006"
       sodipodi:ry="21.428572"
       sodipodi:rx="21.428572"
       sodipodi:cy="173.79076"
       sodipodi:cx="128.57143"
       id="path3833"
       style="fill:none;stroke:#000000;stroke-width:5.26483774;stroke-miterlimit:4;stroke-dasharray:none"
       sodipodi:type="arc" />
    <path
       transform="matrix(1.0390262,0,0,1.0390262,-108.58908,646.78915)"
       d="m 150,173.79076 c 0,11.83467 -9.5939,21.42857 -21.42857,21.42857 -11.83468,0 -21.42858,-9.5939 -21.42858,-21.42857 0,-11.83468 9.5939,-21.42858 21.42858,-21.42858 11.83467,0 21.42857,9.5939 21.42857,21.42858 z"
       sodipodi:ry="21.428572"
       sodipodi:rx="21.428572"
       sodipodi:cy="173.79076"
       sodipodi:cx="128.57143"
       id="path3835"
       style="fill:#0c5da5;fill-opacity:1;stroke:#cccccc;stroke-width:5.26483774;stroke-miterlimit:4;stroke-dasharray:none"
       sodipodi:type="arc" />
    <g
       transform="scale(0.99951374,1.0004865)"
       style="font-size:39.98267746px;font-style:normal;font-weight:normal;line-height:125%;letter-spacing:0px;word-spacing:0px;fill:#000000;fill-opacity:1;stroke:none;font-family:Sans"
       id="text3837">
      <path
         d="m 17.719842,838.20903 6.137341,0 0,-19.53153 c -1.1e-5,-0.55974 0.01998,-1.15281 0.05997,-1.77923 l -5.097791,4.3781 c -0.173264,0.14662 -0.346522,0.23992 -0.519775,0.27988 -0.173263,0.0267 -0.333194,0.0267 -0.479792,0 -0.146608,-0.0266 -0.286547,-0.0799 -0.419818,-0.15993 -0.119953,-0.0799 -0.213245,-0.16658 -0.279879,-0.25989 l -1.119515,-1.53933 8.536302,-7.37681 2.898744,0 0,25.98874 5.637558,0 0,2.71883 -15.353349,0 0,-2.71883"
         style="font-variant:normal;font-stretch:normal;font-family:Lato;-inkscape-font-specification:Lato"
         id="path4017" />
    </g>
    <path
       sodipodi:type="arc"
       style="fill:#0c5da5;fill-opacity:1;stroke:#cccccc;stroke-width:5.26483774;stroke-miterlimit:4;stroke-dasharray:none"
       id="path3841"
       sodipodi:cx="128.57143"
       sodipodi:cy="173.79076"
       sodipodi:rx="21.428572"
       sodipodi:ry="21.428572"
       d="m 150,173.79076 c 0,11.83467 -9.5939,21.42857 -21.42857,21.42857 -11.83468,0 -21.42858,-9.5939 -21.42858,-21.42857 0,-11.83468 9.5939,-21.42858 21.42858,-21.42858 11.83467,0 21.42857,9.5939 21.42857,21.42858 z"
       transform="matrix(1.0390262,0,0,1.0390262,-58.589081,646.78915)" />
    <g
       transform="scale(0.99951374,1.0004865)"
       style="font-size:39.98267746px;font-style:normal;font-weight:normal;line-height:125%;letter-spacing:0px;word-spacing:0px;fill:#000000;fill-opacity:1;stroke:none;font-family:Sans"
       id="text3843">
      <path
         d="m 74.561215,811.96041 c 1.212795,3e-5 2.345637,0.17995 3.398528,0.53976 1.052861,0.35987 1.965798,0.88631 2.738813,1.57932 0.77298,0.67973 1.379383,1.5127 1.819212,2.49892 0.439789,0.98626 0.659694,2.10577 0.659714,3.35854 -2e-5,1.06623 -0.159951,2.05913 -0.479792,2.97871 -0.319881,0.90629 -0.753026,1.77258 -1.299437,2.59887 -0.546448,0.82633 -1.179506,1.63264 -1.899177,2.41896 -0.706377,0.78633 -1.459383,1.57932 -2.259021,2.37897 l -7.556726,7.71665 c 0.533095,-0.1466 1.07286,-0.25988 1.619298,-0.33985 0.546421,-0.0933 1.072859,-0.13994 1.579316,-0.13994 l 9.595842,0 c 0.386479,0 0.693013,0.11329 0.919602,0.33985 0.226548,0.22657 0.339832,0.51978 0.339853,0.87962 l 0,2.15907 -19.11172,0 0,-1.21948 c -2e-6,-0.25322 0.05331,-0.5131 0.159931,-0.77966 0.106618,-0.26655 0.273212,-0.51311 0.499783,-0.73968 l 9.176025,-9.216 c 0.759658,-0.77299 1.45269,-1.51267 2.079099,-2.21904 0.626381,-0.71968 1.159482,-1.43936 1.599307,-2.15907 0.439794,-0.71967 0.779646,-1.44602 1.019558,-2.17905 0.23988,-0.74633 0.359827,-1.53932 0.359844,-2.37897 -1.7e-5,-0.83962 -0.133292,-1.57263 -0.399827,-2.19905 -0.266567,-0.6397 -0.633074,-1.16614 -1.099523,-1.57932 -0.453152,-0.41312 -0.992918,-0.71966 -1.619299,-0.9196 -0.626408,-0.21321 -1.299449,-0.31983 -2.019125,-0.31986 -0.733026,3e-5 -1.406068,0.10665 -2.019125,0.31986 -0.613077,0.21327 -1.159506,0.51314 -1.63929,0.89961 -0.466472,0.3732 -0.859634,0.81967 -1.179489,1.33942 -0.319868,0.5198 -0.546436,1.09288 -0.679705,1.71926 -0.159937,0.46648 -0.379841,0.77968 -0.659714,0.93959 -0.266557,0.14662 -0.646392,0.18661 -1.139507,0.11995 l -1.859194,-0.31986 c 0.186583,-1.30608 0.546427,-2.45891 1.079532,-3.4585 0.546426,-1.01287 1.226131,-1.85917 2.039117,-2.5389 0.826302,-0.67968 1.765894,-1.19279 2.818778,-1.53934 1.052868,-0.35981 2.192373,-0.53973 3.418519,-0.53976"
         style="font-variant:normal;font-stretch:normal;font-family:Lato;-inkscape-font-specification:Lato"
         id="path4014" />
    </g>
    <path
       transform="matrix(1.0390262,0,0,1.0390262,-8.589081,646.78915)"
       d="m 150,173.79076 c 0,11.83467 -9.5939,21.42857 -21.42857,21.42857 -11.83468,0 -21.42858,-9.5939 -21.42858,-21.42857 0,-11.83468 9.5939,-21.42858 21.42858,-21.42858 11.83467,0 21.42857,9.5939 21.42857,21.42858 z"
       sodipodi:ry="21.428572"
       sodipodi:rx="21.428572"
       sodipodi:cy="173.79076"
       sodipodi:cx="128.57143"
       id="path3847"
       style="fill:#0c5da5;fill-opacity:1;stroke:#000000;stroke-width:5.26483774;stroke-miterlimit:4;stroke-dasharray:none"
       sodipodi:type="arc" />
    <g
       transform="scale(0.99951374,1.0004865)"
       style="font-size:39.98267746px;font-style:normal;font-weight:normal;line-height:125%;letter-spacing:0px;word-spacing:0px;fill:#000000;fill-opacity:1;stroke:none;font-family:Sans"
       id="text3849">
      <path
         d="m 124.72548,811.96041 c 1.2128,3e-5 2.33231,0.17328 3.35855,0.51977 1.0262,0.34655 1.90582,0.83967 2.63885,1.47936 0.74633,0.63975 1.32608,1.41275 1.73925,2.319 0.41313,0.90629 0.61971,1.91252 0.61973,3.01869 -2e-5,0.90629 -0.11997,1.71927 -0.35984,2.43894 -0.22659,0.70638 -0.55978,1.33278 -0.99957,1.87919 -0.4265,0.53312 -0.94628,0.98625 -1.55932,1.35941 -0.61309,0.37319 -1.29946,0.67306 -2.05911,0.89961 1.86584,0.49313 3.26523,1.31944 4.19818,2.47892 0.94623,1.15951 1.41936,2.61222 1.41938,4.35812 -2e-5,1.31943 -0.25324,2.50558 -0.75967,3.55845 -0.49314,1.05289 -1.17284,1.95249 -2.03911,2.69884 -0.86631,0.73301 -1.87921,1.29943 -3.03869,1.69926 -1.14618,0.3865 -2.37898,0.57975 -3.6984,0.57975 -1.51935,0 -2.81878,-0.18659 -3.89831,-0.55976 -1.07953,-0.3865 -1.99247,-0.91294 -2.73881,-1.57932 -0.74635,-0.66637 -1.35941,-1.4527 -1.8392,-2.35897 -0.4798,-0.9196 -0.88629,-1.9125 -1.21947,-2.97871 l 1.53933,-0.63973 c 0.39982,-0.17325 0.78632,-0.21989 1.1595,-0.13994 0.38649,0.08 0.66637,0.29988 0.83963,0.65972 0.17326,0.37318 0.3865,0.81965 0.63973,1.33942 0.26654,0.51978 0.62638,1.01956 1.07953,1.49935 0.45313,0.4798 1.02621,0.88629 1.71925,1.21947 0.70635,0.33319 1.5993,0.49979 2.67884,0.49978 0.99956,10e-6 1.87251,-0.15992 2.61887,-0.47979 0.75965,-0.33318 1.38605,-0.75966 1.87918,-1.27944 0.50643,-0.51977 0.88627,-1.09952 1.13951,-1.73925 0.25321,-0.63972 0.37982,-1.27277 0.37984,-1.89918 -2e-5,-0.77299 -0.1,-1.47935 -0.29987,-2.11908 -0.19994,-0.63971 -0.57311,-1.1928 -1.11952,-1.65928 -0.54645,-0.46645 -1.29945,-0.83296 -2.25902,-1.09952 -0.94627,-0.26654 -2.16574,-0.39982 -3.65842,-0.39983 l 0,-2.57888 c 1.22613,-0.0133 2.26568,-0.14659 3.11865,-0.39983 0.86628,-0.25321 1.56598,-0.59972 2.09909,-1.03955 0.54642,-0.43979 0.93958,-0.96623 1.17949,-1.57932 0.25321,-0.61304 0.37982,-1.29275 0.37984,-2.03911 -2e-5,-0.82629 -0.13329,-1.54598 -0.39983,-2.15907 -0.25324,-0.61304 -0.60642,-1.11949 -1.05954,-1.51934 -0.45315,-0.3998 -0.99292,-0.69967 -1.6193,-0.89961 -0.61308,-0.19989 -1.27946,-0.29984 -1.99913,-0.29987 -0.7197,3e-5 -1.39274,0.10665 -2.01913,0.31986 -0.61307,0.21327 -1.1595,0.51314 -1.63929,0.89961 -0.46647,0.3732 -0.85963,0.81967 -1.17949,1.33942 -0.31986,0.5198 -0.54643,1.09288 -0.6797,1.71926 -0.17327,0.46648 -0.39317,0.77968 -0.65972,0.93959 -0.25323,0.14662 -0.6264,0.18661 -1.11951,0.11995 l -1.8592,-0.31986 c 0.18659,-1.30608 0.54643,-2.45891 1.07954,-3.4585 0.53309,-1.01287 1.20614,-1.85917 2.01912,-2.5389 0.8263,-0.67968 1.7659,-1.19279 2.81878,-1.53934 1.0662,-0.35981 2.21236,-0.53973 3.43851,-0.53976"
         style="font-variant:normal;font-stretch:normal;font-family:Lato;-inkscape-font-specification:Lato"
         id="path4011" />
    </g>
    <g
       transform="scale(0.99951374,1.0004865)"
       style="font-size:39.98267746px;font-style:normal;font-weight:normal;line-height:125%;letter-spacing:0px;word-spacing:0px;fill:#cccccc;fill-opacity:1;stroke:none;font-family:Sans"
       id="text3855">
      <path
         d="m 17.719842,888.18462 6.137341,0 0,-19.53154 c -1.1e-5,-0.55973 0.01998,-1.15281 0.05997,-1.77923 l -5.097791,4.37811 c -0.173264,0.14662 -0.346522,0.23991 -0.519775,0.27988 -0.173263,0.0267 -0.333194,0.0267 -0.479792,0 -0.146608,-0.0266 -0.286547,-0.0799 -0.419818,-0.15994 -0.119953,-0.0799 -0.213245,-0.16657 -0.279879,-0.25988 l -1.119515,-1.53934 8.536302,-7.3768 2.898744,0 0,25.98874 5.637558,0 0,2.71882 -15.353349,0 0,-2.71882"
         style="font-variant:normal;font-stretch:normal;fill:#cccccc;font-family:Lato;-inkscape-font-specification:Lato"
         id="path4002" />
    </g>
    <g
       transform="scale(0.99951374,1.0004865)"
       style="font-size:39.98267746px;font-style:normal;font-weight:normal;line-height:125%;letter-spacing:0px;word-spacing:0px;fill:#cccccc;fill-opacity:1;stroke:none;font-family:Sans"
       id="text3861">
      <path
         d="m 74.561215,861.93599 c 1.212795,3e-5 2.345637,0.17995 3.398528,0.53977 1.052861,0.35987 1.965798,0.88631 2.738813,1.57931 0.77298,0.67974 1.379383,1.51271 1.819212,2.49892 0.439789,0.98626 0.659694,2.10578 0.659714,3.35855 -2e-5,1.06622 -0.159951,2.05912 -0.479792,2.97871 -0.319881,0.90629 -0.753026,1.77258 -1.299437,2.59887 -0.546448,0.82632 -1.179506,1.63264 -1.899177,2.41895 -0.706377,0.78634 -1.459383,1.57933 -2.259021,2.37897 l -7.556726,7.71666 c 0.533095,-0.1466 1.07286,-0.25989 1.619298,-0.33985 0.546421,-0.0933 1.072859,-0.13994 1.579316,-0.13994 l 9.595842,0 c 0.386479,0 0.693013,0.11328 0.919602,0.33985 0.226548,0.22657 0.339832,0.51978 0.339853,0.87962 l 0,2.15906 -19.11172,0 0,-1.21947 c -2e-6,-0.25322 0.05331,-0.51311 0.159931,-0.77966 0.106618,-0.26655 0.273212,-0.51311 0.499783,-0.73968 l 9.176025,-9.21601 c 0.759658,-0.77298 1.45269,-1.51266 2.079099,-2.21904 0.626381,-0.71967 1.159482,-1.43936 1.599307,-2.15906 0.439794,-0.71967 0.779646,-1.44602 1.019558,-2.17906 0.23988,-0.74632 0.359827,-1.53931 0.359844,-2.37897 -1.7e-5,-0.83961 -0.133292,-1.57263 -0.399827,-2.19904 -0.266567,-0.6397 -0.633074,-1.16614 -1.099523,-1.57932 -0.453152,-0.41313 -0.992918,-0.71966 -1.619299,-0.9196 -0.626408,-0.21322 -1.299449,-0.31984 -2.019125,-0.31986 -0.733026,2e-5 -1.406068,0.10664 -2.019125,0.31986 -0.613077,0.21327 -1.159506,0.51313 -1.63929,0.89961 -0.466472,0.3732 -0.859634,0.81967 -1.179489,1.33942 -0.319868,0.5198 -0.546436,1.09288 -0.679705,1.71925 -0.159937,0.46649 -0.379841,0.77969 -0.659714,0.9396 -0.266557,0.14662 -0.646392,0.1866 -1.139507,0.11994 l -1.859194,-0.31986 c 0.186583,-1.30608 0.546427,-2.45891 1.079532,-3.4585 0.546426,-1.01287 1.226131,-1.85917 2.039117,-2.5389 0.826302,-0.67968 1.765894,-1.19279 2.818778,-1.53933 1.052868,-0.35982 2.192373,-0.53974 3.418519,-0.53977"
         style="font-variant:normal;font-stretch:normal;fill:#cccccc;font-family:Lato;-inkscape-font-specification:Lato"
         id="path4005" />
    </g>
    <path
       sodipodi:type="arc"
       style="fill:none;stroke:#cccccc;stroke-width:5.26483774;stroke-miterlimit:4;stroke-dasharray:none"
       id="path3865"
       sodipodi:cx="128.57143"
       sodipodi:cy="173.79076"
       sodipodi:rx="21.428572"
       sodipodi:ry="21.428572"
       d="m 150,173.79076 c 0,11.83467 -9.5939,21.42857 -21.42857,21.42857 -11.83468,0 -21.42858,-9.5939 -21.42858,-21.42857 0,-11.83468 9.5939,-21.42858 21.42858,-21.42858 11.83467,0 21.42857,9.5939 21.42857,21.42858 z"
       transform="matrix(1.0390262,0,0,1.0390262,-8.589081,696.78915)" />
    <g
       transform="scale(0.99951374,1.0004865)"
       style="font-size:39.98267746px;font-style:normal;font-weight:normal;line-height:125%;letter-spacing:0px;word-spacing:0px;fill:#cccccc;fill-opacity:1;stroke:none;font-family:Sans"
       id="text3867">
      <path
         d="m 124.72548,861.93599 c 1.2128,3e-5 2.33231,0.17329 3.35855,0.51978 1.0262,0.34654 1.90582,0.83966 2.63885,1.47936 0.74633,0.63975 1.32608,1.41274 1.73925,2.31899 0.41313,0.9063 0.61971,1.91253 0.61973,3.01869 -2e-5,0.9063 -0.11997,1.71928 -0.35984,2.43895 -0.22659,0.70638 -0.55978,1.33277 -0.99957,1.87918 -0.4265,0.53312 -0.94628,0.98626 -1.55932,1.35941 -0.61309,0.37319 -1.29946,0.67306 -2.05911,0.89961 1.86584,0.49314 3.26523,1.31945 4.19818,2.47893 0.94623,1.15951 1.41936,2.61221 1.41938,4.35811 -2e-5,1.31944 -0.25324,2.50559 -0.75967,3.55846 -0.49314,1.05288 -1.17284,1.95249 -2.03911,2.69883 -0.86631,0.73302 -1.87921,1.29944 -3.03869,1.69926 -1.14618,0.3865 -2.37898,0.57975 -3.6984,0.57975 -1.51935,0 -2.81878,-0.18658 -3.89831,-0.55975 -1.07953,-0.3865 -1.99247,-0.91294 -2.73881,-1.57932 -0.74635,-0.66637 -1.35941,-1.4527 -1.8392,-2.35898 -0.4798,-0.91959 -0.88629,-1.9125 -1.21947,-2.97871 l 1.53933,-0.63972 c 0.39982,-0.17325 0.78632,-0.2199 1.1595,-0.13994 0.38649,0.08 0.66637,0.29988 0.83963,0.65972 0.17326,0.37317 0.3865,0.81965 0.63973,1.33941 0.26654,0.51979 0.62638,1.01957 1.07953,1.49936 0.45313,0.47979 1.02621,0.88628 1.71925,1.21947 0.70635,0.33319 1.5993,0.49978 2.67884,0.49978 0.99956,0 1.87251,-0.15993 2.61887,-0.47979 0.75965,-0.33319 1.38605,-0.75967 1.87918,-1.27945 0.50643,-0.51977 0.88627,-1.09952 1.13951,-1.73924 0.25321,-0.63972 0.37982,-1.27278 0.37984,-1.89918 -2e-5,-0.77299 -0.1,-1.47935 -0.29987,-2.11908 -0.19994,-0.63972 -0.57311,-1.19281 -1.11952,-1.65928 -0.54645,-0.46646 -1.29945,-0.83296 -2.25902,-1.09953 -0.94627,-0.26654 -2.16574,-0.39981 -3.65842,-0.39982 l 0,-2.57889 c 1.22613,-0.0133 2.26568,-0.14658 3.11865,-0.39982 0.86628,-0.25321 1.56598,-0.59973 2.09909,-1.03955 0.54642,-0.4398 0.93958,-0.96623 1.17949,-1.57932 0.25321,-0.61305 0.37982,-1.29275 0.37984,-2.03912 -2e-5,-0.82628 -0.13329,-1.54597 -0.39983,-2.15906 -0.25324,-0.61304 -0.60642,-1.11949 -1.05954,-1.51934 -0.45315,-0.3998 -0.99292,-0.69967 -1.6193,-0.89961 -0.61308,-0.19989 -1.27946,-0.29985 -1.99913,-0.29987 -0.7197,2e-5 -1.39274,0.10664 -2.01913,0.31986 -0.61307,0.21327 -1.1595,0.51313 -1.63929,0.89961 -0.46647,0.3732 -0.85963,0.81967 -1.17949,1.33942 -0.31986,0.5198 -0.54643,1.09288 -0.6797,1.71925 -0.17327,0.46649 -0.39317,0.77969 -0.65972,0.9396 -0.25323,0.14662 -0.6264,0.1866 -1.11951,0.11994 l -1.8592,-0.31986 c 0.18659,-1.30608 0.54643,-2.45891 1.07954,-3.4585 0.53309,-1.01287 1.20614,-1.85917 2.01912,-2.5389 0.8263,-0.67968 1.7659,-1.19279 2.81878,-1.53933 1.0662,-0.35982 2.21236,-0.53974 3.43851,-0.53977"
         style="font-variant:normal;font-stretch:normal;fill:#cccccc;font-family:Lato;-inkscape-font-specification:Lato"
         id="path4008" />
    </g>
    <path
       transform="matrix(1.0390262,0,0,1.0390262,-58.589081,596.7896)"
       d="m 128.06094,152.36827 c 11.83131,-0.28194 21.65104,9.08068 21.93298,20.912 0.28193,11.83131 -9.08069,21.65104 -20.91201,21.93298 -7.45826,0.17772 -14.47215,-3.53638 -18.5167,-9.80527"
       sodipodi:ry="21.428572"
       sodipodi:rx="21.428572"
       sodipodi:cy="173.79076"
       sodipodi:cx="128.57143"
       id="path3871"
       style="fill:none;stroke:#000000;stroke-width:5.26483774;stroke-miterlimit:4;stroke-dasharray:none"
       sodipodi:type="arc"
       sodipodi:start="4.688564"
       sodipodi:end="8.8517996"
       sodipodi:open="true" />
    <path
       sodipodi:open="true"
       sodipodi:end="8.8517996"
       sodipodi:start="4.688564"
       sodipodi:type="arc"
       style="fill:none;stroke:#000000;stroke-width:5.26483774;stroke-miterlimit:4;stroke-dasharray:none"
       id="path3873"
       sodipodi:cx="128.57143"
       sodipodi:cy="173.79076"
       sodipodi:rx="21.428572"
       sodipodi:ry="21.428572"
       d="m 128.06094,152.36827 c 11.83131,-0.28194 21.65104,9.08068 21.93298,20.912 0.28193,11.83131 -9.08069,21.65104 -20.91201,21.93298 -7.45826,0.17772 -14.47215,-3.53638 -18.5167,-9.80527"
       transform="matrix(1.0390262,0,0,1.0390262,-58.589081,646.78905)" />
    <path
       transform="matrix(1.0390262,0,0,1.0390262,-58.589081,696.78905)"
       d="m 128.06094,152.36827 c 11.83131,-0.28194 21.65104,9.08068 21.93298,20.912 0.28193,11.83131 -9.08069,21.65104 -20.91201,21.93298 -7.45826,0.17772 -14.47215,-3.53638 -18.5167,-9.80527"
       sodipodi:ry="21.428572"
       sodipodi:rx="21.428572"
       sodipodi:cy="173.79076"
       sodipodi:cx="128.57143"
       id="path3875"
       style="fill:none;stroke:#cccccc;stroke-width:5.26483774;stroke-miterlimit:4;stroke-dasharray:none"
       sodipodi:type="arc"
       sodipodi:start="4.688564"
       sodipodi:end="8.8517996"
       sodipodi:open="true" />
    <path
       sodipodi:open="true"
       sodipodi:end="6.9218756"
       sodipodi:start="4.688564"
       sodipodi:type="arc"
       style="fill:none;stroke:#000000;stroke-width:5.26483774;stroke-miterlimit:4;stroke-dasharray:none"
       id="path3877"
       sodipodi:cx="128.57143"
       sodipodi:cy="173.79076"
       sodipodi:rx="21.428572"
       sodipodi:ry="21.428572"
       d="m 128.06094,152.36827 c 11.83131,-0.28194 21.65104,9.08068 21.93298,20.912 0.11377,4.77465 -1.37079,9.45046 -4.21798,13.28501"
       transform="matrix(1.0390262,0,0,1.0390262,-108.58908,596.7896)" />
    <path
       transform="matrix(1.0390262,0,0,1.0390262,-108.58908,646.78915)"
       d="m 128.06094,152.36827 c 11.83131,-0.28194 21.65104,9.08068 21.93298,20.912 0.0982,4.12035 -0.99397,8.1816 -3.14555,11.69695"
       sodipodi:ry="21.428572"
       sodipodi:rx="21.428572"
       sodipodi:cy="173.79076"
       sodipodi:cx="128.57143"
       id="path3879"
       style="fill:none;stroke:#000000;stroke-width:5.26483774;stroke-miterlimit:4;stroke-dasharray:none"
       sodipodi:type="arc"
       sodipodi:start="4.688564"
       sodipodi:end="6.8324202"
       sodipodi:open="true" />
    <path
       sodipodi:open="true"
       sodipodi:end="6.8282621"
       sodipodi:start="4.688564"
       sodipodi:type="arc"
       style="fill:none;stroke:#cccccc;stroke-width:5.26483774;stroke-miterlimit:4;stroke-dasharray:none"
       id="path3881"
       sodipodi:cx="128.57143"
       sodipodi:cy="173.79076"
       sodipodi:rx="21.428572"
       sodipodi:ry="21.428572"
       d="m 128.06094,152.36827 c 11.83131,-0.28194 21.65104,9.08068 21.93298,20.912 0.0975,4.09005 -0.97797,8.12251 -3.09919,11.62085"
       transform="matrix(1.0390262,0,0,1.0390262,-108.58908,696.78915)" />
    <path
       sodipodi:type="arc"
       style="fill:#0c5da5;fill-opacity:1;stroke:#cccccc;stroke-width:5.26483774;stroke-miterlimit:4;stroke-dasharray:none"
       id="path3883"
       sodipodi:cx="128.57143"
       sodipodi:cy="173.79076"
       sodipodi:rx="21.428572"
       sodipodi:ry="21.428572"
       d="m 150,173.79076 c 0,11.83467 -9.5939,21.42857 -21.42857,21.42857 -11.83468,0 -21.42858,-9.5939 -21.42858,-21.42857 0,-11.83468 9.5939,-21.42858 21.42858,-21.42858 11.83467,0 21.42857,9.5939 21.42857,21.42858 z"
       transform="matrix(1.0390262,0,0,1.0390262,-108.58908,796.78855)" />
    <path
       transform="matrix(1.0390262,0,0,1.0390262,-58.589081,796.78855)"
       d="m 150,173.79076 c 0,11.83467 -9.5939,21.42857 -21.42857,21.42857 -11.83468,0 -21.42858,-9.5939 -21.42858,-21.42857 0,-11.83468 9.5939,-21.42858 21.42858,-21.42858 11.83467,0 21.42857,9.5939 21.42857,21.42858 z"
       sodipodi:ry="21.428572"
       sodipodi:rx="21.428572"
       sodipodi:cy="173.79076"
       sodipodi:cx="128.57143"
       id="path3885"
       style="fill:#0c5da5;fill-opacity:1;stroke:#cccccc;stroke-width:5.26483774;stroke-miterlimit:4;stroke-dasharray:none"
       sodipodi:type="arc" />
    <path
       sodipodi:type="arc"
       style="fill:#0c5da5;fill-opacity:1;stroke:#cccccc;stroke-width:5.26483774;stroke-miterlimit:4;stroke-dasharray:none"
       id="path3887"
       sodipodi:cx="128.57143"
       sodipodi:cy="173.79076"
       sodipodi:rx="21.428572"
       sodipodi:ry="21.428572"
       d="m 150,173.79076 c 0,11.83467 -9.5939,21.42857 -21.42857,21.42857 -11.83468,0 -21.42858,-9.5939 -21.42858,-21.42857 0,-11.83468 9.5939,-21.42858 21.42858,-21.42858 11.83467,0 21.42857,9.5939 21.42857,21.42858 z"
       transform="matrix(1.0390262,0,0,1.0390262,-8.589081,796.78855)" />
    <path
       sodipodi:open="true"
       sodipodi:end="6.3357488"
       sodipodi:start="4.6644095"
       sodipodi:type="arc"
       style="fill:none;stroke:#000000;stroke-width:5.26483774;stroke-miterlimit:4;stroke-dasharray:none"
       id="path3889"
       sodipodi:cx="128.57143"
       sodipodi:cy="173.79076"
       sodipodi:rx="21.428572"
       sodipodi:ry="21.428572"
       d="m 127.54369,152.38684 c 11.82105,-0.5676 21.86404,8.55512 22.43165,20.37618 0.0345,0.71749 0.0328,1.43625 -0.005,2.15358"
       transform="matrix(1.0390262,0,0,1.0390262,-108.58908,796.78855)" />
    <g
       transform="scale(0.99951374,1.0004865)"
       style="font-size:39.98267746px;font-style:normal;font-weight:normal;line-height:125%;letter-spacing:0px;word-spacing:0px;fill:#000000;fill-opacity:1;stroke:none;font-family:Sans"
       id="text3891">
      <path
         d="m 17.719842,988.13567 6.137341,0 0,-19.53154 c -1.1e-5,-0.55973 0.01998,-1.15281 0.05997,-1.77923 l -5.097791,4.37811 c -0.173264,0.14662 -0.346522,0.23991 -0.519775,0.27987 -0.173263,0.0267 -0.333194,0.0267 -0.479792,0 -0.146608,-0.0266 -0.286547,-0.0799 -0.419818,-0.15993 -0.119953,-0.0799 -0.213245,-0.16657 -0.279879,-0.25988 l -1.119515,-1.53934 8.536302,-7.3768 2.898744,0 0,25.98874 5.637558,0 0,2.71882 -15.353349,0 0,-2.71882"
         style="font-variant:normal;font-stretch:normal;font-family:Lato;-inkscape-font-specification:Lato"
         id="path3978" />
    </g>
    <path
       sodipodi:open="true"
       sodipodi:end="7.8701723"
       sodipodi:start="4.6623807"
       transform="matrix(1.0390262,0,0,1.0390262,-58.589081,796.78855)"
       d="m 127.50027,152.38897 c 11.81988,-0.59158 21.88135,8.51075 22.47294,20.33063 0.59158,11.81988 -8.51075,21.88135 -20.33062,22.47294 -0.47231,0.0236 -0.94526,0.0316 -1.41809,0.024"
       sodipodi:ry="21.428572"
       sodipodi:rx="21.428572"
       sodipodi:cy="173.79076"
       sodipodi:cx="128.57143"
       id="path3895"
       style="fill:none;stroke:#000000;stroke-width:5.26483774;stroke-miterlimit:4;stroke-dasharray:none"
       sodipodi:type="arc" />
    <g
       transform="scale(0.99951374,1.0004865)"
       style="font-size:39.98267746px;font-style:normal;font-weight:normal;line-height:125%;letter-spacing:0px;word-spacing:0px;fill:#000000;fill-opacity:1;stroke:none;font-family:Sans"
       id="text3897">
      <path
         d="m 74.561215,961.88704 c 1.212795,3e-5 2.345637,0.17995 3.398528,0.53977 1.052861,0.35987 1.965798,0.88631 2.738813,1.57931 0.77298,0.67974 1.379383,1.51271 1.819212,2.49892 0.439789,0.98626 0.659694,2.10578 0.659714,3.35855 -2e-5,1.06622 -0.159951,2.05912 -0.479792,2.97871 -0.319881,0.90629 -0.753026,1.77258 -1.299437,2.59887 -0.546448,0.82632 -1.179506,1.63264 -1.899177,2.41895 -0.706377,0.78634 -1.459383,1.57933 -2.259021,2.37897 l -7.556726,7.71666 c 0.533095,-0.1466 1.07286,-0.25989 1.619298,-0.33985 0.546421,-0.0933 1.072859,-0.13994 1.579316,-0.13994 l 9.595842,0 c 0.386479,0 0.693013,0.11328 0.919602,0.33985 0.226548,0.22657 0.339832,0.51978 0.339853,0.87962 l 0,2.15906 -19.11172,0 0,-1.21947 c -2e-6,-0.25322 0.05331,-0.51311 0.159931,-0.77966 0.106618,-0.26655 0.273212,-0.51311 0.499783,-0.73968 l 9.176025,-9.21601 c 0.759658,-0.77298 1.45269,-1.51266 2.079099,-2.21904 0.626381,-0.71967 1.159482,-1.43936 1.599307,-2.15906 0.439794,-0.71967 0.779646,-1.44602 1.019558,-2.17906 0.23988,-0.74632 0.359827,-1.53931 0.359844,-2.37897 -1.7e-5,-0.83961 -0.133292,-1.57263 -0.399827,-2.19904 -0.266567,-0.6397 -0.633074,-1.16614 -1.099523,-1.57932 -0.453152,-0.41313 -0.992918,-0.71966 -1.619299,-0.9196 -0.626408,-0.21322 -1.299449,-0.31984 -2.019125,-0.31986 -0.733026,2e-5 -1.406068,0.10664 -2.019125,0.31986 -0.613077,0.21326 -1.159506,0.51313 -1.63929,0.89961 -0.466472,0.37319 -0.859634,0.81967 -1.179489,1.33942 -0.319868,0.5198 -0.546436,1.09288 -0.679705,1.71925 -0.159937,0.46649 -0.379841,0.77969 -0.659714,0.9396 -0.266557,0.14662 -0.646392,0.1866 -1.139507,0.11994 l -1.859194,-0.31986 c 0.186583,-1.30608 0.546427,-2.45891 1.079532,-3.4585 0.546426,-1.01287 1.226131,-1.85917 2.039117,-2.5389 0.826302,-0.67968 1.765894,-1.19279 2.818778,-1.53933 1.052868,-0.35982 2.192373,-0.53974 3.418519,-0.53977"
         style="font-variant:normal;font-stretch:normal;font-family:Lato;-inkscape-font-specification:Lato"
         id="path3981" />
    </g>
    <path
       sodipodi:open="true"
       sodipodi:end="9.4749945"
       sodipodi:start="4.662501"
       sodipodi:type="arc"
       style="fill:none;stroke:#000000;stroke-width:5.26483774;stroke-miterlimit:4;stroke-dasharray:none"
       id="path3901"
       sodipodi:cx="128.57143"
       sodipodi:cy="173.79076"
       sodipodi:rx="21.428572"
       sodipodi:ry="21.428572"
       d="m 127.50284,152.38884 c 11.81995,-0.59016 21.88033,8.51338 22.4705,20.33333 0.59016,11.81995 -8.51338,21.88033 -20.33333,22.4705 -11.81995,0.59016 -21.88033,-8.51338 -22.4705,-20.33333 -0.0357,-0.71429 -0.0355,-1.42992 3.6e-4,-2.1442"
       transform="matrix(1.0390262,0,0,1.0390262,-8.589081,796.78855)" />
    <g
       transform="scale(0.99951374,1.0004865)"
       style="font-size:39.98267746px;font-style:normal;font-weight:normal;line-height:125%;letter-spacing:0px;word-spacing:0px;fill:#000000;fill-opacity:1;stroke:none;font-family:Sans"
       id="text3903">
      <path
         d="m 124.72548,961.88704 c 1.2128,3e-5 2.33231,0.17329 3.35855,0.51978 1.0262,0.34654 1.90582,0.83966 2.63885,1.47936 0.74633,0.63975 1.32608,1.41274 1.73925,2.31899 0.41313,0.9063 0.61971,1.91253 0.61973,3.01869 -2e-5,0.9063 -0.11997,1.71928 -0.35984,2.43895 -0.22659,0.70638 -0.55978,1.33277 -0.99957,1.87918 -0.4265,0.53312 -0.94628,0.98626 -1.55932,1.35941 -0.61309,0.37319 -1.29946,0.67306 -2.05911,0.89961 1.86584,0.49314 3.26523,1.31945 4.19818,2.47893 0.94623,1.15951 1.41936,2.61221 1.41938,4.35811 -2e-5,1.31944 -0.25324,2.50559 -0.75967,3.55846 -0.49314,1.05288 -1.17284,1.95249 -2.03911,2.69883 -0.86631,0.73302 -1.87921,1.29944 -3.03869,1.69926 -1.14618,0.3865 -2.37898,0.57975 -3.6984,0.57975 -1.51935,0 -2.81878,-0.18658 -3.89831,-0.55975 -1.07953,-0.3865 -1.99247,-0.91294 -2.73881,-1.57932 -0.74635,-0.66638 -1.35941,-1.4527 -1.8392,-2.35898 -0.4798,-0.91959 -0.88629,-1.9125 -1.21947,-2.97871 l 1.53933,-0.63972 c 0.39982,-0.17325 0.78632,-0.2199 1.1595,-0.13994 0.38649,0.08 0.66637,0.29988 0.83963,0.65971 0.17326,0.37318 0.3865,0.81966 0.63973,1.33942 0.26654,0.51978 0.62638,1.01957 1.07953,1.49935 0.45313,0.4798 1.02621,0.88629 1.71925,1.21948 0.70635,0.33319 1.5993,0.49978 2.67884,0.49978 0.99956,0 1.87251,-0.15993 2.61887,-0.47979 0.75965,-0.33319 1.38605,-0.75967 1.87918,-1.27945 0.50643,-0.51977 0.88627,-1.09952 1.13951,-1.73924 0.25321,-0.63972 0.37982,-1.27278 0.37984,-1.89918 -2e-5,-0.77299 -0.1,-1.47935 -0.29987,-2.11908 -0.19994,-0.63972 -0.57311,-1.19281 -1.11952,-1.65928 -0.54645,-0.46646 -1.29945,-0.83296 -2.25902,-1.09953 -0.94627,-0.26654 -2.16574,-0.39981 -3.65842,-0.39982 l 0,-2.57889 c 1.22613,-0.0133 2.26568,-0.14658 3.11865,-0.39982 0.86628,-0.25321 1.56598,-0.59973 2.09909,-1.03955 0.54642,-0.4398 0.93958,-0.96623 1.17949,-1.57932 0.25321,-0.61305 0.37982,-1.29275 0.37984,-2.03912 -2e-5,-0.82628 -0.13329,-1.54597 -0.39983,-2.15906 -0.25324,-0.61304 -0.60642,-1.11949 -1.05954,-1.51934 -0.45315,-0.3998 -0.99292,-0.69967 -1.6193,-0.89961 -0.61308,-0.19989 -1.27946,-0.29985 -1.99913,-0.29987 -0.7197,2e-5 -1.39274,0.10664 -2.01913,0.31986 -0.61307,0.21326 -1.1595,0.51313 -1.63929,0.89961 -0.46647,0.37319 -0.85963,0.81967 -1.17949,1.33942 -0.31986,0.5198 -0.54643,1.09288 -0.6797,1.71925 -0.17327,0.46649 -0.39317,0.77969 -0.65972,0.9396 -0.25323,0.14662 -0.6264,0.1866 -1.11951,0.11994 l -1.8592,-0.31986 c 0.18659,-1.30608 0.54643,-2.45891 1.07954,-3.4585 0.53309,-1.01287 1.20614,-1.85917 2.01912,-2.5389 0.8263,-0.67968 1.7659,-1.19279 2.81878,-1.53933 1.0662,-0.35982 2.21236,-0.53974 3.43851,-0.53977"
         style="font-variant:normal;font-stretch:normal;font-family:Lato;-inkscape-font-specification:Lato"
         id="path3984" />
    </g>
    <path
       transform="matrix(1.0390262,0,0,1.0390262,41.410919,796.78855)"
       d="m 150,173.79076 c 0,11.83467 -9.5939,21.42857 -21.42857,21.42857 -11.83468,0 -21.42858,-9.5939 -21.42858,-21.42857 0,-11.83468 9.5939,-21.42858 21.42858,-21.42858 11.83467,0 21.42857,9.5939 21.42857,21.42858 z"
       sodipodi:ry="21.428572"
       sodipodi:rx="21.428572"
       sodipodi:cy="173.79076"
       sodipodi:cx="128.57143"
       id="path3907"
       style="fill:#0c5da5;fill-opacity:1;stroke:#000000;stroke-width:5.26483774;stroke-miterlimit:4;stroke-dasharray:none"
       sodipodi:type="arc" />
    <g
       transform="scale(0.99951374,1.0004865)"
       style="font-size:39.98267746px;font-style:normal;font-weight:normal;line-height:125%;letter-spacing:0px;word-spacing:0px;fill:#000000;fill-opacity:1;stroke:none;font-family:Sans"
       id="text3909">
      <path
         d="m 180.50732,980.51897 4.33812,0 0,2.03912 c -2e-5,0.21325 -0.0667,0.39317 -0.19991,0.53976 -0.11997,0.14661 -0.31322,0.21992 -0.57975,0.21991 l -3.55846,0 0,7.53673 -3.11864,0 0,-7.53673 -12.7145,0 c -0.26655,10e-6 -0.49978,-0.0733 -0.69969,-0.21991 -0.18659,-0.15992 -0.30654,-0.35317 -0.35985,-0.57975 l -0.35984,-1.81921 13.93396,-18.49199 3.31856,0 0,18.31207 m -3.11864,-11.81488 c -2e-5,-0.3465 0.007,-0.71967 0.02,-1.11952 0.0266,-0.41313 0.0733,-0.83294 0.13994,-1.25945 l -10.43548,14.19385 10.27555,0 0,-11.81488"
         style="font-variant:normal;font-stretch:normal;font-family:Lato;-inkscape-font-specification:Lato"
         id="path3987" />
    </g>
    <path
       transform="matrix(1.0390262,0,0,1.0390262,-108.58908,846.78855)"
       d="m 127.54369,152.38684 c 11.82105,-0.5676 21.86404,8.55512 22.43165,20.37618 0.0345,0.71749 0.0328,1.43625 -0.005,2.15358"
       sodipodi:ry="21.428572"
       sodipodi:rx="21.428572"
       sodipodi:cy="173.79076"
       sodipodi:cx="128.57143"
       id="path3919"
       style="fill:none;stroke:#cccccc;stroke-width:5.26483774;stroke-miterlimit:4;stroke-dasharray:none"
       sodipodi:type="arc"
       sodipodi:start="4.6644095"
       sodipodi:end="6.3357488"
       sodipodi:open="true" />
    <g
       transform="scale(0.99951374,1.0004865)"
       style="font-size:39.98267746px;font-style:normal;font-weight:normal;line-height:125%;letter-spacing:0px;word-spacing:0px;fill:#cccccc;fill-opacity:1;stroke:none;font-family:Sans"
       id="text3921">
      <path
         d="m 17.719842,1038.1114 6.137341,0 0,-19.5316 c -1.1e-5,-0.5597 0.01998,-1.1528 0.05997,-1.7792 l -5.097791,4.3781 c -0.173264,0.1466 -0.346522,0.2399 -0.519775,0.2799 -0.173263,0.027 -0.333194,0.027 -0.479792,0 -0.146608,-0.027 -0.286547,-0.08 -0.419818,-0.1599 -0.119953,-0.08 -0.213245,-0.1666 -0.279879,-0.2599 l -1.119515,-1.5394 8.536302,-7.3768 2.898744,0 0,25.9888 5.637558,0 0,2.7188 -15.353349,0 0,-2.7188"
         style="font-variant:normal;font-stretch:normal;fill:#cccccc;font-family:Lato;-inkscape-font-specification:Lato"
         id="path3975" />
    </g>
    <path
       sodipodi:type="arc"
       style="fill:none;stroke:#cccccc;stroke-width:5.26483774;stroke-miterlimit:4;stroke-dasharray:none"
       id="path3925"
       sodipodi:cx="128.57143"
       sodipodi:cy="173.79076"
       sodipodi:rx="21.428572"
       sodipodi:ry="21.428572"
       d="m 127.50027,152.38897 c 11.81988,-0.59158 21.88135,8.51075 22.47294,20.33063 0.59158,11.81988 -8.51075,21.88135 -20.33062,22.47294 -0.47231,0.0236 -0.94526,0.0316 -1.41809,0.024"
       transform="matrix(1.0390262,0,0,1.0390262,-58.589081,846.78855)"
       sodipodi:start="4.6623807"
       sodipodi:end="7.8701723"
       sodipodi:open="true" />
    <g
       transform="scale(0.99951374,1.0004865)"
       style="font-size:39.98267746px;font-style:normal;font-weight:normal;line-height:125%;letter-spacing:0px;word-spacing:0px;fill:#cccccc;fill-opacity:1;stroke:none;font-family:Sans"
       id="text3927">
      <path
         d="m 74.561215,1011.8628 c 1.212795,0 2.345637,0.1799 3.398528,0.5397 1.052861,0.3599 1.965798,0.8863 2.738813,1.5793 0.77298,0.6798 1.379383,1.5127 1.819212,2.4989 0.439789,0.9863 0.659694,2.1058 0.659714,3.3586 -2e-5,1.0662 -0.159951,2.0591 -0.479792,2.9787 -0.319881,0.9063 -0.753026,1.7726 -1.299437,2.5989 -0.546448,0.8263 -1.179506,1.6326 -1.899177,2.4189 -0.706377,0.7864 -1.459383,1.5794 -2.259021,2.379 l -7.556726,7.7167 c 0.533095,-0.1466 1.07286,-0.2599 1.619298,-0.3399 0.546421,-0.093 1.072859,-0.1399 1.579316,-0.1399 l 9.595842,0 c 0.386479,0 0.693013,0.1133 0.919602,0.3398 0.226548,0.2266 0.339832,0.5198 0.339853,0.8796 l 0,2.1591 -19.11172,0 0,-1.2195 c -2e-6,-0.2532 0.05331,-0.5131 0.159931,-0.7796 0.106618,-0.2666 0.273212,-0.5131 0.499783,-0.7397 l 9.176025,-9.216 c 0.759658,-0.773 1.45269,-1.5127 2.079099,-2.2191 0.626381,-0.7196 1.159482,-1.4393 1.599307,-2.159 0.439794,-0.7197 0.779646,-1.446 1.019558,-2.1791 0.23988,-0.7463 0.359827,-1.5393 0.359844,-2.3789 -1.7e-5,-0.8397 -0.133292,-1.5727 -0.399827,-2.1991 -0.266567,-0.6397 -0.633074,-1.1661 -1.099523,-1.5793 -0.453152,-0.4131 -0.992918,-0.7197 -1.619299,-0.9196 -0.626408,-0.2132 -1.299449,-0.3198 -2.019125,-0.3199 -0.733026,1e-4 -1.406068,0.1067 -2.019125,0.3199 -0.613077,0.2133 -1.159506,0.5131 -1.63929,0.8996 -0.466472,0.3732 -0.859634,0.8197 -1.179489,1.3394 -0.319868,0.5198 -0.546436,1.0929 -0.679705,1.7193 -0.159937,0.4665 -0.379841,0.7797 -0.659714,0.9396 -0.266557,0.1466 -0.646392,0.1866 -1.139507,0.1199 l -1.859194,-0.3198 c 0.186583,-1.3061 0.546427,-2.459 1.079532,-3.4586 0.546426,-1.0128 1.226131,-1.8591 2.039117,-2.5389 0.826302,-0.6796 1.765894,-1.1927 2.818778,-1.5393 1.052868,-0.3598 2.192373,-0.5397 3.418519,-0.5397"
         style="font-variant:normal;font-stretch:normal;fill:#cccccc;font-family:Lato;-inkscape-font-specification:Lato"
         id="path3972" />
    </g>
    <path
       transform="matrix(1.0390262,0,0,1.0390262,-8.589081,846.78855)"
       d="m 127.50284,152.38884 c 11.81995,-0.59016 21.88033,8.51338 22.4705,20.33333 0.59016,11.81995 -8.51338,21.88033 -20.33333,22.4705 -11.81995,0.59016 -21.88033,-8.51338 -22.4705,-20.33333 -0.0357,-0.71429 -0.0355,-1.42992 3.6e-4,-2.1442"
       sodipodi:ry="21.428572"
       sodipodi:rx="21.428572"
       sodipodi:cy="173.79076"
       sodipodi:cx="128.57143"
       id="path3931"
       style="fill:none;stroke:#cccccc;stroke-width:5.26483774;stroke-miterlimit:4;stroke-dasharray:none"
       sodipodi:type="arc"
       sodipodi:start="4.662501"
       sodipodi:end="9.4749945"
       sodipodi:open="true" />
    <g
       transform="scale(0.99951374,1.0004865)"
       style="font-size:39.98267746px;font-style:normal;font-weight:normal;line-height:125%;letter-spacing:0px;word-spacing:0px;fill:#cccccc;fill-opacity:1;stroke:none;font-family:Sans"
       id="text3933">
      <path
         d="m 124.72548,1011.8628 c 1.2128,0 2.33231,0.1732 3.35855,0.5197 1.0262,0.3466 1.90582,0.8397 2.63885,1.4794 0.74633,0.6397 1.32608,1.4127 1.73925,2.319 0.41313,0.9063 0.61971,1.9125 0.61973,3.0187 -2e-5,0.9063 -0.11997,1.7192 -0.35984,2.4389 -0.22659,0.7064 -0.55978,1.3328 -0.99957,1.8792 -0.4265,0.5331 -0.94628,0.9863 -1.55932,1.3594 -0.61309,0.3732 -1.29946,0.6731 -2.05911,0.8996 1.86584,0.4932 3.26523,1.3195 4.19818,2.4789 0.94623,1.1596 1.41936,2.6123 1.41938,4.3582 -2e-5,1.3194 -0.25324,2.5055 -0.75967,3.5584 -0.49314,1.0529 -1.17284,1.9525 -2.03911,2.6988 -0.86631,0.7331 -1.87921,1.2995 -3.03869,1.6993 -1.14618,0.3865 -2.37898,0.5798 -3.6984,0.5798 -1.51935,0 -2.81878,-0.1866 -3.89831,-0.5598 -1.07953,-0.3865 -1.99247,-0.9129 -2.73881,-1.5793 -0.74635,-0.6664 -1.35941,-1.4527 -1.8392,-2.359 -0.4798,-0.9196 -0.88629,-1.9125 -1.21947,-2.9787 l 1.53933,-0.6397 c 0.39982,-0.1733 0.78632,-0.2199 1.1595,-0.14 0.38649,0.08 0.66637,0.2999 0.83963,0.6598 0.17326,0.3731 0.3865,0.8196 0.63973,1.3394 0.26654,0.5198 0.62638,1.0195 1.07953,1.4993 0.45313,0.4798 1.02621,0.8863 1.71925,1.2195 0.70635,0.3332 1.5993,0.4998 2.67884,0.4998 0.99956,0 1.87251,-0.1599 2.61887,-0.4798 0.75965,-0.3332 1.38605,-0.7597 1.87918,-1.2795 0.50643,-0.5197 0.88627,-1.0995 1.13951,-1.7392 0.25321,-0.6397 0.37982,-1.2728 0.37984,-1.8992 -2e-5,-0.773 -0.1,-1.4793 -0.29987,-2.1191 -0.19994,-0.6397 -0.57311,-1.1928 -1.11952,-1.6592 -0.54645,-0.4665 -1.29945,-0.833 -2.25902,-1.0996 -0.94627,-0.2665 -2.16574,-0.3998 -3.65842,-0.3998 l 0,-2.5789 c 1.22613,-0.013 2.26568,-0.1466 3.11865,-0.3998 0.86628,-0.2532 1.56598,-0.5997 2.09909,-1.0396 0.54642,-0.4397 0.93958,-0.9662 1.17949,-1.5793 0.25321,-0.613 0.37982,-1.2927 0.37984,-2.0391 -2e-5,-0.8263 -0.13329,-1.546 -0.39983,-2.1591 -0.25324,-0.613 -0.60642,-1.1194 -1.05954,-1.5193 -0.45315,-0.3998 -0.99292,-0.6997 -1.6193,-0.8996 -0.61308,-0.1999 -1.27946,-0.2998 -1.99913,-0.2999 -0.7197,1e-4 -1.39274,0.1067 -2.01913,0.3199 -0.61307,0.2133 -1.1595,0.5131 -1.63929,0.8996 -0.46647,0.3732 -0.85963,0.8197 -1.17949,1.3394 -0.31986,0.5198 -0.54643,1.0929 -0.6797,1.7193 -0.17327,0.4665 -0.39317,0.7797 -0.65972,0.9396 -0.25323,0.1466 -0.6264,0.1866 -1.11951,0.1199 l -1.8592,-0.3198 c 0.18659,-1.3061 0.54643,-2.459 1.07954,-3.4586 0.53309,-1.0128 1.20614,-1.8591 2.01912,-2.5389 0.8263,-0.6796 1.7659,-1.1927 2.81878,-1.5393 1.0662,-0.3598 2.21236,-0.5397 3.43851,-0.5397"
         style="font-variant:normal;font-stretch:normal;fill:#cccccc;font-family:Lato;-inkscape-font-specification:Lato"
         id="path3969" />
    </g>
    <path
       sodipodi:type="arc"
       style="fill:none;stroke:#cccccc;stroke-width:5.26483774;stroke-miterlimit:4;stroke-dasharray:none"
       id="path3937"
       sodipodi:cx="128.57143"
       sodipodi:cy="173.79076"
       sodipodi:rx="21.428572"
       sodipodi:ry="21.428572"
       d="m 150,173.79076 c 0,11.83467 -9.5939,21.42857 -21.42857,21.42857 -11.83468,0 -21.42858,-9.5939 -21.42858,-21.42857 0,-11.83468 9.5939,-21.42858 21.42858,-21.42858 11.83467,0 21.42857,9.5939 21.42857,21.42858 z"
       transform="matrix(1.0390262,0,0,1.0390262,41.410919,846.78855)" />
    <g
       transform="scale(0.99951374,1.0004865)"
       style="font-size:39.98267746px;font-style:normal;font-weight:normal;line-height:125%;letter-spacing:0px;word-spacing:0px;fill:#cccccc;fill-opacity:1;stroke:none;font-family:Sans"
       id="text3939">
      <path
         d="m 180.50732,1030.4947 4.33812,0 0,2.0391 c -2e-5,0.2132 -0.0667,0.3932 -0.19991,0.5398 -0.11997,0.1466 -0.31322,0.2199 -0.57975,0.2199 l -3.55846,0 0,7.5367 -3.11864,0 0,-7.5367 -12.7145,0 c -0.26655,0 -0.49978,-0.073 -0.69969,-0.2199 -0.18659,-0.16 -0.30654,-0.3532 -0.35985,-0.5798 l -0.35984,-1.8192 13.93396,-18.492 3.31856,0 0,18.3121 m -3.11864,-11.8149 c -2e-5,-0.3465 0.007,-0.7197 0.02,-1.1195 0.0266,-0.4131 0.0733,-0.833 0.13994,-1.2595 l -10.43548,14.1939 10.27555,0 0,-11.8149"
         style="font-variant:normal;font-stretch:normal;fill:#cccccc;font-family:Lato;-inkscape-font-specification:Lato"
         id="path3966" />
    </g>
  </g>
</svg>
